STARTFONT 2.3
FONT -FontForge-Shadows Into Light-Book-R-Normal--28-280-72-72-P-116-ISO10646-1
SIZE 28 72 72  4
FONTBOUNDINGBOX 40 45 -5 -12
COMMENT "Generated by fontforge, http://fontforge.sourceforge.net"
COMMENT "Copyright (c) 2010, Kimberly Geswein (kimberlygeswein.com)"
STARTPROPERTIES 40
FOUNDRY "FontForge"
FAMILY_NAME "Shadows Into Light"
WEIGHT_NAME "Book"
SLANT "R"
SETWIDTH_NAME "Normal"
ADD_STYLE_NAME ""
PIXEL_SIZE 28
POINT_SIZE 280
RESOLUTION_X 72
RESOLUTION_Y 72
SPACING "P"
AVERAGE_WIDTH 116
CHARSET_REGISTRY "ISO10646"
CHARSET_ENCODING "1"
FONTNAME_REGISTRY ""
CHARSET_COLLECTIONS "ISO8859-2 ISO8859-9 ISO8859-4 ISO10646-1"
BITS_PER_PIXEL 4
FONT_NAME "ShadowsIntoLight"
FACE_NAME "Shadows Into Light"
COPYRIGHT "Copyright (c) 2010, Kimberly Geswein (kimberlygeswein.com)"
FONT_VERSION "001.000"
FONT_ASCENT 22
FONT_DESCENT 6
UNDERLINE_POSITION 0
UNDERLINE_THICKNESS 0
X_HEIGHT 16
CAP_HEIGHT 19
RAW_ASCENT 799
RAW_DESCENT 200
NORM_SPACE 13
RELATIVE_WEIGHT 40
RELATIVE_SETWIDTH 50
SUPERSCRIPT_X 0
SUPERSCRIPT_Y 13
SUPERSCRIPT_SIZE 18
SUBSCRIPT_X 0
SUBSCRIPT_Y 3
SUBSCRIPT_SIZE 18
AVG_LOWERCASE_WIDTH 105
AVG_UPPERCASE_WIDTH 136
ENDPROPERTIES
CHARS 352
STARTCHAR space
ENCODING 32
SWIDTH 450 0
DWIDTH 13 0
BBX 1 1 0 0
BITMAP
00
ENDCHAR
STARTCHAR exclam
ENCODING 33
SWIDTH 137 0
DWIDTH 4 0
BBX 4 24 0 0
BITMAP
1900
3D00
4D00
5D00
5D00
6D00
7D00
7D00
7D00
8D00
8E00
9F10
9F30
7F40
2700
0000
0000
0000
0000
0000
0000
0000
0082
00B3
ENDCHAR
STARTCHAR quotedbl
ENCODING 34
SWIDTH 212 0
DWIDTH 6 0
BBX 5 9 0 14
BITMAP
010000
3F1280
2F32E0
0F42E0
0E52E0
0D62E0
0B62E0
0971D0
066010
ENDCHAR
STARTCHAR numbersign
ENCODING 35
SWIDTH 450 0
DWIDTH 13 0
BBX 12 16 1 2
BITMAP
000000C20000
002100E40000
00C800E60000
00AC00EA0000
008E00EFE800
007F6AFD1000
3DEFA5AC0000
07CE009C0056
007E009D7DB2
007F009FD300
007F39FF4000
007FE75F3000
3BFF600E3000
4A7F100B6000
000A20062000
000110000000
ENDCHAR
STARTCHAR dollar
ENCODING 36
SWIDTH 445 0
DWIDTH 12 0
BBX 12 25 0 -3
BITMAP
000002800000
000009B00000
00000BB00000
00000CB00000
00000BDBC200
00007FEA5000
001AFFB00000
01CD2AB00000
0CD10AB00000
8F400AB00000
CD000AC00000
CF632CF63000
29DEEEFABC70
000004F10099
000002F20088
000001F404D1
000000F88D30
000001FFC100
00006EFD1000
0001C7EB0000
000000AC0000
0000006F0000
0000002F3000
0000000D6000
000000095000
ENDCHAR
STARTCHAR percent
ENCODING 37
SWIDTH 450 0
DWIDTH 13 0
BBX 12 22 0 0
BITMAP
00000000C800
00000003F500
00320008F100
0BEE700DA000
5F30C02F6000
8E00B07F1000
8D0490BC0000
6D5E20E80000
1EE503F40000
000006E00000
00000AB00000
00000D7008B2
00001F300EFB
00003E002F4F
00006B003E2E
000098003FAA
0000B4002FF3
0000D1000640
0001D0000000
0003A0000000
000570000000
000540000000
ENDCHAR
STARTCHAR ampersand
ENCODING 38
SWIDTH 356 0
DWIDTH 10 0
BBX 10 13 0 3
BITMAP
0000061000
00002F1000
00002F1000
00002F0000
00002F0172
01763F4EC0
1D9DDFFC10
6900CFB100
8602EF7000
772D9E7000
4ED80F6000
05301F6000
00001C3000
ENDCHAR
STARTCHAR quotesingle
ENCODING 39
SWIDTH 155 0
DWIDTH 4 0
BBX 3 9 0 9
BITMAP
0710
1F80
0FB0
0DC0
0BC0
09B0
08A0
05A0
0040
ENDCHAR
STARTCHAR parenleft
ENCODING 40
SWIDTH 291 0
DWIDTH 8 0
BBX 8 24 0 0
BITMAP
00000010
000000B7
000008E2
00004F50
0001D900
0008E100
002F5000
009D0000
01E60000
06E10000
0BA00000
1F600000
3F200000
6F000000
7D000000
8D000000
7D000000
5F000000
2F300000
0C900000
05E10000
00CB0000
003EA100
0003BD70
ENDCHAR
STARTCHAR parenright
ENCODING 41
SWIDTH 241 0
DWIDTH 7 0
BBX 6 21 0 0
BITMAP
3C2000
1BD100
01CB00
002E60
0007D0
0001E4
0000A9
00006B
00004D
00003F
00002F
00001F
00002E
00005D
00009B
0000E8
0005F3
000BD0
002F60
006C00
006200
ENDCHAR
STARTCHAR asterisk
ENCODING 42
SWIDTH 481 0
DWIDTH 13 0
BBX 13 15 0 1
BITMAP
00000610000000
00002F10020000
00002F205E2000
00002F22E90000
29402F4D900000
19FD9FE947ACA0
003CFFFFFD9620
0246EFFD300000
7FFDEFDDE60000
0303ECC18EC300
002EE4E002A700
01DF41F1000000
05F500E3000000
003000C4000000
00000020000000
ENDCHAR
STARTCHAR plus
ENCODING 43
SWIDTH 466 0
DWIDTH 13 0
BBX 13 13 0 3
BITMAP
00000610000000
00002F10000000
00002F10000000
00002F10000000
00002F10000000
00002F1027ACA0
00002F9DFD9620
0356BFC5100000
7FEBBF60000000
03003F60000000
00000F60000000
00000C60000000
00000840000000
ENDCHAR
STARTCHAR comma
ENCODING 44
SWIDTH 112 0
DWIDTH 3 0
BBX 3 7 0 -3
BITMAP
0220
1FB0
2FD0
0EC0
0E90
0F50
0E20
ENDCHAR
STARTCHAR hyphen
ENCODING 45
SWIDTH 399 0
DWIDTH 11 0
BBX 11 5 0 5
BITMAP
000000000100
00000028DF80
00005BFFE930
269EFC830000
6CB620000000
ENDCHAR
STARTCHAR period
ENCODING 46
SWIDTH 128 0
DWIDTH 4 0
BBX 3 2 0 0
BITMAP
1980
2F80
ENDCHAR
STARTCHAR slash
ENCODING 47
SWIDTH 306 0
DWIDTH 9 0
BBX 8 23 0 -3
BITMAP
00000056
000000C8
000002F3
000006D0
00000B90
00001F40
00005E00
0000AA00
0000E500
0004F100
0008B000
000D6000
002F2000
007C0000
00C70000
01F30000
06D00000
0A800000
0E400000
4E000000
9A000000
C5000000
21000000
ENDCHAR
STARTCHAR zero
ENCODING 48
SWIDTH 308 0
DWIDTH 9 0
BBX 7 15 1 0
BITMAP
019FB200
0AB19C00
4D101E30
A6000A60
D2000780
F2000590
F20005A0
F30005B0
E30005A0
C5000790
97000A60
6A001E40
1E007D00
0A96F700
02DE8000
ENDCHAR
STARTCHAR one
ENCODING 49
SWIDTH 112 0
DWIDTH 3 0
BBX 3 18 0 0
BITMAP
0500
1F00
1F00
1F10
1F10
1F10
2F20
2F20
2F20
2F20
2F30
2F30
1F40
1F40
0F40
0E50
0C50
0A40
ENDCHAR
STARTCHAR two
ENCODING 50
SWIDTH 512 0
DWIDTH 14 0
BBX 14 17 0 0
BITMAP
00000010000000
00006DF8000000
001BFACF300000
01CE401F700000
1CD2000C800000
4D10000D700000
0000000E600000
0000003F300000
0000007D000000
000000C9000000
000002F4000000
000009D0000000
00002F70000031
00009E10159EE7
0003F86BFEA610
000BFFC8400000
00097100000000
ENDCHAR
STARTCHAR three
ENCODING 51
SWIDTH 461 0
DWIDTH 13 0
BBX 13 20 0 0
BITMAP
00000014000000
00027CFF900000
02AFD86CD00000
4ED50008A00000
5C10001E400000
000000BB000000
000009E2000000
00007F60000000
0005FECEDB6000
004FFE7236DA00
01EF9100003F40
00110000000F60
00000000002F30
0000000000AC00
0000000007F400
000000007F8000
0000001AF90000
000002DF700000
00002EE6000000
00002C30000000
ENDCHAR
STARTCHAR four
ENCODING 52
SWIDTH 503 0
DWIDTH 14 0
BBX 14 22 0 0
BITMAP
00000000590000
00000001EE0000
00000007FE0000
0000001EFE0000
0000009FEE0000
000002FC8E0000
00000AF38E0000
00004F708E0000
0000DB008E0000
0007E2008E0000
002E70008E0132
00CE1003BFEFF8
08F959EFEE6320
9FFEA7308E0000
652000008E0000
000000008E0000
000000008E0000
000000008E0000
000000008E0000
000000008E0000
000000008E0000
000000007A0000
ENDCHAR
STARTCHAR five
ENCODING 53
SWIDTH 478 0
DWIDTH 13 0
BBX 13 20 0 0
BITMAP
00000000000320
057000036AEFB0
3FF66AEC852210
7FFFC610000000
3EF80000000000
0BE00000000000
0CB00000000000
0DA00014300000
0DA007EFF70000
0DA0AE73BE0000
0DA9B1005F1000
0CFA00005F0000
0BA000008C0000
02000001E80000
00000008F20000
0000004F800000
000002EC100000
00000CE2000000
00006F40000000
00008400000000
ENDCHAR
STARTCHAR six
ENCODING 54
SWIDTH 375 0
DWIDTH 11 0
BBX 10 23 0 0
BITMAP
0008500000
000F700000
003F400000
006F100000
008D000000
00B9000000
00E6000000
01F3000000
04F0000000
07C0000000
0990000000
0C70000000
0E40004BD9
2F2007FB9C
4F103F904B
5F10CB0077
4F14E100D2
4F1A6006B0
2F4E101D50
0ECB009C00
09FB05F300
02EFAF8000
004DE70000
ENDCHAR
STARTCHAR seven
ENCODING 55
SWIDTH 458 0
DWIDTH 13 0
BBX 12 21 0 0
BITMAP
000000035797
0036ADFFFFFC
6EFFDB9658F6
121000000CE1
000000003F90
000000006F40
000000009E00
00000000C900
00000001F500
00000003F100
00000006D000
00000008A000
0000000A8000
0000000C6000
0000000E6000
0000000F6000
0000001F6000
0000001F8000
0000000FA000
0000000DE000
00000006E100
ENDCHAR
STARTCHAR eight
ENCODING 56
SWIDTH 333 0
DWIDTH 9 0
BBX 9 20 0 0
BITMAP
0000266100
0006FFFB00
008C4CFF20
05E25FDC40
0D80000A40
4F30000D20
7F00002D00
6F00008800
2F4001E300
09C108C000
01BC6F5000
001BFE0000
0001FE1000
0005DA8000
000B30B300
002C002C00
0078000D30
00A6000D30
009C55BC00
003DFE9100
ENDCHAR
STARTCHAR nine
ENCODING 57
SWIDTH 475 0
DWIDTH 13 0
BBX 13 19 0 0
BITMAP
0000029DDA2000
00005EE96ED000
0006F9104FF400
004F7000DFE700
01D90009F7C800
08E1006FB0B800
1E7004FD10A800
5E104EE2009900
9B07FE30008A00
9FDFD200008B00
2BB71000007C00
00000000006E00
00000000005F00
00000000004F10
00000000004F20
00000000003F30
00000000002F40
00000000002F40
00000000001E20
ENDCHAR
STARTCHAR colon
ENCODING 58
SWIDTH 120 0
DWIDTH 3 0
BBX 3 9 0 3
BITMAP
3D10
2C10
0000
0000
0000
0000
0000
0B50
0B30
ENDCHAR
STARTCHAR semicolon
ENCODING 59
SWIDTH 121 0
DWIDTH 3 0
BBX 3 12 0 -3
BITMAP
0300
1F70
0210
0000
0000
0220
1FB0
2FD0
0EC0
0E90
0F50
0E20
ENDCHAR
STARTCHAR less
ENCODING 60
SWIDTH 409 0
DWIDTH 11 0
BBX 11 15 1 3
BITMAP
000000001A10
00000001CE10
0000003DF400
000005EF5000
00007FD30000
000AFA100000
01CE60000000
3DD200000000
9F6000000000
2DF810000000
01AFD5000000
0005DFB30000
000018FFB400
0000002BF700
000000004000
ENDCHAR
STARTCHAR equal
ENCODING 61
SWIDTH 433 0
DWIDTH 12 0
BBX 12 8 0 2
BITMAP
000013579A60
08CEFFFD9400
06B975200000
000000000133
00000048CFF6
00159EEB9610
3EFD83000000
174000000000
ENDCHAR
STARTCHAR greater
ENCODING 62
SWIDTH 450 0
DWIDTH 13 0
BBX 10 16 1 3
BITMAP
2300000000
9F91000000
2BFE700000
004CFD5000
00005DFB30
0000006EF7
00000001BE
00000000CA
00000009E2
000001AF40
00002DF500
0005EE4000
009FD30000
0AFC100000
7F80000000
7400000000
ENDCHAR
STARTCHAR question
ENCODING 63
SWIDTH 445 0
DWIDTH 12 0
BBX 12 26 0 0
BITMAP
000002588620
0039DFDCCEE5
3CFFA30001BD
8EA30000008D
0000000000AA
0000000003F4
000000001DA0
00000001BE20
0000001CF400
000002DF5000
00001DF60000
0000AF600000
0004F7000000
0007F3000000
0006FC325000
0000AFFFC000
000002320000
000000000000
000000000000
000000000000
000000000000
000000000000
000000000000
000000000000
00000B400000
00000C800000
ENDCHAR
STARTCHAR at
ENCODING 64
SWIDTH 945 0
DWIDTH 26 0
BBX 26 26 0 0
BITMAP
00000000000000122100000000
0000000000017CFFFFA3000000
00000000008EEA6435AF600000
000000003DE710000005F50000
00000005EB20000000006E2000
0000005F7000000000000C9000
000004F600000330000006F100
00002E700004DFF9000002F400
0000CA00008F947C000000F600
0007E10008E307D6000000E700
002E60006E302FF0000000E500
009D0003F400BFF0000000F400
01F7000C9006E4F2000003F100
06F1006E102E50C5000008B000
0BC000D801C9009C10004E3000
0E9004F31BC1003ED88AE50000
2F7006F6DC1000027997100000
4F6003ED700000000000000000
3F700000000000000000000000
2F9000000000000000000004EC
0ED00000000000000000002DE5
09F5000000000000000018FB20
01EE2000000000000028ED5000
004EE600000000004AFD700000
0002BFEA876679BEFA50000000
0000038BEEFEDB841000000000
ENDCHAR
STARTCHAR A
ENCODING 65
SWIDTH 390 0
DWIDTH 11 0
BBX 14 22 0 -1
BITMAP
002E3000000000
005FB000000000
007FF300000000
008FF900000000
00AD6E00000000
00CB0E40000000
00DA09A0000000
00F804E1000000
02F700E5000000
03F500BB000000
05F4007F201561
06F3003FBBFEF5
08F2004FE83021
09F127EFD00000
0BFEFB69F20000
0CF91001F50000
0DA00000C90000
0F6000007D0000
1F4000003F2000
3F3000000D6000
14100000077000
00000000010000
ENDCHAR
STARTCHAR B
ENCODING 66
SWIDTH 537 0
DWIDTH 15 0
BBX 15 21 0 0
BITMAP
0000000243000000
000006CFFFA00000
4B14DE942AD00000
3FCF91000C900000
0DF600006F200000
0BD00002E6000000
09D0001D90000000
07E000BA269A9500
05F11BEBEA76CF50
02F5BFE710002F40
00FFFD2000005D00
00DFD1000001D400
00BF4000000B9000
008D000000BC1000
006D00000AE20000
004F0000AF400000
002F300AF6000000
000E508F70000000
000C73F700000000
000A802000000000
0006400000000000
ENDCHAR
STARTCHAR C
ENCODING 67
SWIDTH 487 0
DWIDTH 14 0
BBX 13 22 0 -1
BITMAP
00000035200000
000009FFF50000
00008F619D0000
0003F600070000
000AC000000000
002F5000000000
007E0000000000
00C90000000000
01F50000000000
05F10000000000
09C00000000000
0B900000000000
0E600000000010
1F400000000AD0
3F200000002F90
4F10000000BE20
4F20000007F500
2F5000005F7000
0CB00007F70000
05FA67DD400000
006EFE81000000
00001000000000
ENDCHAR
STARTCHAR D
ENCODING 68
SWIDTH 554 0
DWIDTH 16 0
BBX 15 21 0 0
BITMAP
0009000000000000
001F543210000000
00AFFFFFFDA61000
1CFF9212359EE600
4B8F600000008F50
003F600000000AB0
002F6000000007D0
001F6000000008A0
000F700000000C60
000E700000004F10
000D80000000C900
000C80000007E200
000B9000003E7000
0009900002DC0000
0008A0001CE20000
0007A000BF400000
0006B00AF6000000
0005C09F90000000
0003A7F900000000
00003F9000000000
0000790000000000
ENDCHAR
STARTCHAR E
ENCODING 69
SWIDTH 474 0
DWIDTH 13 0
BBX 12 21 1 0
BITMAP
000000002510
B700038DE700
ED04BFE71000
BFBFE7100000
9FE810000000
7F1000000000
5F0000000000
4F1000001100
3F200005E300
2F3003CE5000
1F42AF910000
1FBFA2000000
0FF500000000
0FB000000000
0FB0000003CA
0FB000008F91
0FB0003CE400
0FB018FA1000
0FD8ED500000
0FFF81000000
088200000000
ENDCHAR
STARTCHAR F
ENCODING 70
SWIDTH 428 0
DWIDTH 12 0
BBX 12 20 0 0
BITMAP
000000000165
19400003AFC4
3F6004BFC500
3F87CFB40000
3FFFB3000000
3FC300000000
2F9000000000
2FA000000000
2FA000000001
1FB0000006D4
1FC00004CD50
0FC002AF8100
0ED18FB20000
0DFED5000000
0CF910000000
0BE000000000
0AE000000000
08E000000000
06E000000000
01C000000000
ENDCHAR
STARTCHAR G
ENCODING 71
SWIDTH 591 0
DWIDTH 17 0
BBX 16 22 0 -3
BITMAP
0000000001310000
00000002AFF90000
0000004EE9400000
000004E700000000
00001E9000000000
0000BC1000000000
0005F30000000000
000D900000000133
005E1000016AEFFC
00D800003DDDEFC0
04F2000000009F60
0AB000000002FF30
0E600000000AFF00
3F300000007FFE00
5F00000005FDBD00
6F1000007FC19C00
3FC4226CFA10AD00
07FFFFFD5000BD00
0028A9610000BE00
000000000000AF00
0000000000008F20
0000000000003D20
ENDCHAR
STARTCHAR H
ENCODING 72
SWIDTH 424 0
DWIDTH 12 0
BBX 11 19 0 0
BITMAP
071000018100
2F400002F700
2F500000D900
1F500000AA00
1F6000008C00
0F6000007D00
0F7000008E00
0E700000BF10
0E800004FF20
0D90006ECF40
0DB16CE60F50
0CFEF8100E60
0CFC20000C80
0BD100000B90
0AA000000AB0
0A90000009C0
09A0000008D0
09C0000006E0
08A0000003C0
ENDCHAR
STARTCHAR I
ENCODING 73
SWIDTH 153 0
DWIDTH 4 0
BBX 3 21 1 0
BITMAP
6B00
6F00
4F10
3F20
3F30
2F40
2F40
1F50
1F50
1F60
0F60
0F60
0F70
0F70
0E70
0E70
0E70
0D70
0D70
0C80
0850
ENDCHAR
STARTCHAR J
ENCODING 74
SWIDTH 371 0
DWIDTH 10 0
BBX 10 22 0 -2
BITMAP
0000004A00
0000005D00
0000005F10
0000004F30
0000003F50
0000001F70
0000000EA0
0000000CC0
0000000AE0
00000008F0
00000006F2
00000004F4
00000003F5
00000001F6
00000000F6
10000000E7
81000000D7
78000000D6
1E300000E5
07D20003F2
008E746E90
00039BA600
ENDCHAR
STARTCHAR K
ENCODING 75
SWIDTH 524 0
DWIDTH 15 0
BBX 15 19 0 0
BITMAP
2C20000000000000
1F70000002900000
0C9000002E700000
0AA00001DC000000
08C0000AF3000000
06E0005F70000000
05F101DB00000000
04F208E200000000
02F43F5000000000
01F6CB0000000000
00FDF20000000000
00DFA00000000000
00CF600000000000
00BF943221111110
009FFFFFFFFFFF70
008E222222222200
005F200000000000
002F300000000000
0009200000000000
ENDCHAR
STARTCHAR L
ENCODING 76
SWIDTH 537 0
DWIDTH 15 0
BBX 15 18 0 0
BITMAP
1840000000000000
3FB0000000000000
2FC0000000000000
1FC0000000000000
0FD0000000000000
0ED0000000000000
0EE0000000000000
0DE0000000000000
0DF0000000000000
0CF0000000000000
0CF1000000000000
0CF1000000000330
0BF200000004BFB0
0BF2000005CFA610
0BF30006DFA20000
0AF328EFB3000000
0AFDFFB300000000
08ED830000000000
ENDCHAR
STARTCHAR M
ENCODING 77
SWIDTH 682 0
DWIDTH 19 0
BBX 19 22 0 0
BITMAP
05200000000000130000
2FF50000000000AD0000
0EFF3000000001FE0000
0CCDC000000005FF0000
0A94F60000000A9F2000
08A0BD0000000E3F3000
06B03F6000005D0E4000
06C00BD00000980D5000
05D003F60000E40C6000
04F000BD0004E00A8000
04F1003F6009A0099000
03F3000AD00E5008A000
03F40003F64E1006C000
03F60000BEB90005E000
03F700003FF30004F000
03F900000B900002F200
02FA000000000001F400
02FC000000000000F700
01FD000000000000EA00
00FE000000000000CD00
00EE000000000000BF20
00CD0000000000009910
ENDCHAR
STARTCHAR N
ENCODING 78
SWIDTH 541 0
DWIDTH 15 0
BBX 15 22 0 0
BITMAP
0000000000041000
00000000000F8000
00000000000CD000
000000000009F000
2D4000000007F100
2FF400000006F200
0FFE20000005F200
0DFFC0000004F200
0CE8F8000003F300
0AE0AF400003F300
08E01CE20002F400
06F002EB0002F400
05F2004F8002F500
03F30007F402F500
01F50000AE12F500
00F700001DB3F600
00D9000002EBF600
00BC0000005FF800
009D00000008FD00
008E00000001FF10
007F000000008700
004C000000000000
ENDCHAR
STARTCHAR O
ENCODING 79
SWIDTH 382 0
DWIDTH 11 0
BBX 11 19 0 0
BITMAP
00002AC81000
0003EFFFC100
000DE505F900
007F2000BE00
00DB00006F20
04F600004F40
08F100003F50
0CC000003F50
1F8000004F40
3F5000006F30
5F2000008F10
7F000000BD00
8E000001FA00
8D000005F500
7E00000CE000
4F30005F6000
0EB104EC0000
07FEDFC10000
008ED8100000
ENDCHAR
STARTCHAR P
ENCODING 80
SWIDTH 508 0
DWIDTH 14 0
BBX 14 23 0 0
BITMAP
00000003564000
007C29EFFFFE50
02FFFB51138EF3
0BFE30000002E9
3FFC00000000C9
01EA00000004F4
00E80000002DC0
00E7000003DE20
00E700005ED200
00E8003BFA1000
00EB3AFD500000
00EFFE70000000
00EF7100000000
00DD0000000000
00DD0000000000
00CD0000000000
00BD0000000000
00AD0000000000
009D0000000000
008D0000000000
006D0000000000
005D0000000000
002C0000000000
ENDCHAR
STARTCHAR Q
ENCODING 81
SWIDTH 512 0
DWIDTH 14 0
BBX 14 21 0 0
BITMAP
0002DE8DFE6000
000DFF9659F400
006FD200007C00
00BF4000000E30
01FA0000000A60
05F40000000790
08E000000006B0
0BB000000005C0
0E7000000005C0
1F4000000005D0
2F300002A105C0
3F200003F606B0
3F300000BC0790
2F4000005F4A70
0F5000000DCE40
0C80000006FE00
08C0000002FB00
03F4000006FF40
00AD20003E7EC0
001DD76AF706F5
00019EFC400082
ENDCHAR
STARTCHAR R
ENCODING 82
SWIDTH 503 0
DWIDTH 14 0
BBX 13 23 1 0
BITMAP
20000000000000
ED000157630000
EE02AFFFFFD600
EE9FC73115DF40
DFD40000007F40
DE10000002E900
DC0000005E8000
DB000019E50000
D90006EA100000
D805DD50000000
DBCF9100000000
DFD40000000000
DF500000000000
DFFB3000000000
D9BFFA30000000
D603AFFA200000
D60003AFF92000
D60000029FFA30
D6000000018ED0
D6000000000120
D6000000000000
D6000000000000
84000000000000
ENDCHAR
STARTCHAR S
ENCODING 83
SWIDTH 541 0
DWIDTH 15 0
BBX 15 21 0 0
BITMAP
0000000014510000
0000004BFFF80000
00001AE63AB20000
0003EA1000000000
003E900000000000
02EA000000000000
0BD1000000000000
3F50000000000000
8E00000000000000
AC00000000000000
7E10000000000000
1DC3000000000000
019ED97542100000
000047ACEFFEA400
000000000025AF30
0000000000005F60
000000000018FB10
0000000039EE6000
0000049DFC610000
0006EFD830000000
0004520000000000
ENDCHAR
STARTCHAR T
ENCODING 84
SWIDTH 595 0
DWIDTH 17 0
BBX 20 20 0 0
BITMAP
000000004D20134679B4
00000246CFEEFFFFDA50
28BDFFFEEFB654200000
8DCA73103F7000000000
000000000F7000000000
000000000E8000000000
000000000C9000000000
000000000BB000000000
0000000009C000000000
0000000008E000000000
0000000006F100000000
0000000005F300000000
0000000004F500000000
0000000002F700000000
0000000001F900000000
0000000000EB00000000
0000000000CD00000000
0000000000AE00000000
00000000007E00000000
00000000004F00000000
ENDCHAR
STARTCHAR U
ENCODING 85
SWIDTH 450 0
DWIDTH 13 0
BBX 13 22 0 -4
BITMAP
00000000003100
1840000000D900
2F90000001FB00
2F90000004FA00
1F90000006FA00
1F90000009F900
0F9000000BF800
0F9000000EF700
0E9000002FF700
0E9000005FF600
0D9000008FF500
0D900000CAF600
0D900002F5D700
0B900008E1C800
09C0001E70A900
05F500BD109B00
01DFBED2007D00
0029A710006E00
00000000004F00
00000000003F10
00000000001E00
00000000000100
ENDCHAR
STARTCHAR V
ENCODING 86
SWIDTH 524 0
DWIDTH 15 0
BBX 14 21 0 0
BITMAP
00000000000012
0000000000008E
000000000000BB
000000000000E8
350000000003F5
8F3000000007F2
1FA00000000BD0
09F20000000EA0
02F90000003F70
00AF2000006F30
003F800000AF00
000BE10000EC00
0004F80002F900
0000CE1006F500
00005F700AF200
00000DE00DE000
000007F62FB000
000001ED6F7000
0000008FDF4000
0000001EFF1000
00000002BC0000
ENDCHAR
STARTCHAR W
ENCODING 87
SWIDTH 878 0
DWIDTH 25 0
BBX 24 22 0 -1
BITMAP
000000000000000000000083
0000000000000000000001F7
0000000000000000000004F3
0300000000006400000008E0
4E7000000002FE0000000BB0
3FC000000005FF4000000F70
0BF200000009DF9000004F30
04F70000000E5DD000007E00
00EB0000003F19F30000BB00
009F1000008B04F70000E700
004F500000D700DC0003F300
001FA00002F2007F2007E000
000CE00007D0002F700BB000
0008F4000C80000AD00E7000
0004F9002F400003F43F3000
0001FE007E000000BC7E0000
0000CF40C90000004FEB0000
00007F92F50000000BF90000
00002FD8F100000003F50000
00000CFFC000000000400000
000004FF5000000000000000
000000430000000000000000
ENDCHAR
STARTCHAR X
ENCODING 88
SWIDTH 461 0
DWIDTH 13 0
BBX 13 20 0 0
BITMAP
00000000000810
00200000006D10
05E1000001E600
03F7000008D000
00BE10002E5000
004F7000AC0000
000CD004F40000
0005F60CA00000
0000CD7F300000
00005FF9000000
00000EF2000000
00002FF6000000
00009FED000000
0004F73F600000
000DB009E10000
008E2001E70000
04F700008E1000
1DD000002F8000
2A4000000AE100
0000000003E100
ENDCHAR
STARTCHAR Y
ENCODING 89
SWIDTH 483 0
DWIDTH 14 0
BBX 13 22 0 0
BITMAP
00000000000280
000000000006D0
00000000000A90
00000000000E50
76000000004F10
5F300000009B00
0CD1000000E700
03FB000005F200
007F80000AD000
000AF5001F8000
0001CF406F3000
00001DF6CD0000
000002DFF70000
0000003FF20000
0000000FB00000
0000003F600000
0000007F100000
000000CB000000
000002F6000000
000007F1000000
00000AC0000000
00000A70000000
ENDCHAR
STARTCHAR Z
ENCODING 90
SWIDTH 670 0
DWIDTH 19 0
BBX 19 20 0 0
BITMAP
01111111111110000000
0EFFFFFFFFFFFFF70000
0222222233468FF50000
000000000000AF800000
000000000007FB000000
00000000004FD1000000
0000000002EE30000000
000000000CF500000000
000000009F8000000000
00000005FB0000000000
0000003ED10000000000
000001DE300000000000
00000AF5000000000000
00007F80000000000000
0004FB00000000000000
002ED100000000000000
00CF3000000000000000
09F71111111112235600
4FFFFFFFFFFFFFFFFF10
2EEDCCBBBAA999876400
ENDCHAR
STARTCHAR bracketleft
ENCODING 91
SWIDTH 470 0
DWIDTH 13 0
BBX 13 35 0 -3
BITMAP
00000001122100
3DDDEEFFFE9100
4FA44433100000
4F600000000000
2F500000000000
1F600000000000
0F700000000000
0D700000000000
0C800000000000
0B900000000000
09A00000000000
08B00000000000
07D00000000000
05E00000000000
04F00000000000
03F20000000000
01F30000000000
00F50000000000
00E70000000000
00C80000000000
00B90000000000
00AA0000000000
008B0000000000
007C0000000000
006D0000000000
004E0000000000
003E0000000000
003F0000000000
003F0000000000
003F1000000000
003F2000000000
003F3000003740
003F8457BEFC40
003FFFFC841000
000AA610000000
ENDCHAR
STARTCHAR backslash
ENCODING 92
SWIDTH 554 0
DWIDTH 16 0
BBX 15 29 0 0
BITMAP
1200000000000000
7F20000000000000
2FA0000000000000
07F2000000000000
00C9000000000000
003F200000000000
000B900000000000
0004F20000000000
0000D80000000000
00006E1000000000
00000E8000000000
000007E100000000
000001E800000000
0000009E10000000
0000002F70000000
0000000AE1000000
00000003F7000000
00000000BE100000
000000004F700000
000000000DD00000
0000000006F60000
0000000000ED0000
00000000007F6000
00000000001ED000
000000000009F600
000000000002FD00
000000000000AF50
0000000000003FC0
0000000000000BE0
ENDCHAR
STARTCHAR bracketright
ENCODING 93
SWIDTH 512 0
DWIDTH 14 0
BBX 14 36 0 -3
BITMAP
1467889BCDDD70
DFFFFDB988DF80
23320000007F60
00000000007F50
00000000007F40
00000000007F40
00000000007F30
00000000006F30
00000000006F30
00000000006F30
00000000005F30
00000000004F40
00000000004F40
00000000003F50
00000000002F60
00000000001F60
00000000001F70
00000000000F70
00000000000E80
00000000000D90
00000000000CA0
00000000000CB0
00000000000BB0
00000000000AC0
000000000009D0
000000000009E0
000000000008F0
000000000008F1
000000000007F2
000000000007F4
000000000007F5
000000000006F6
000000000006F7
00000000037DF9
0000016AEFFFC4
000002BB975100
ENDCHAR
STARTCHAR asciicircum
ENCODING 94
SWIDTH 390 0
DWIDTH 11 0
BBX 11 8 0 18
BITMAP
0000CB000000
0005FEA00000
000D82E80000
007E103F5000
01E60006F400
08C000009E50
1E4000000A30
150000000000
ENDCHAR
STARTCHAR underscore
ENCODING 95
SWIDTH 612 0
DWIDTH 17 0
BBX 17 5 0 0
BITMAP
00000000000047AD50
0000000148CFFFFE30
000159CFFFFC963000
27CFFFEA7410000000
6EC952000000000000
ENDCHAR
STARTCHAR grave
ENCODING 96
SWIDTH 155 0
DWIDTH 4 0
BBX 4 5 0 16
BITMAP
4500
7F30
1ED1
04F5
0031
ENDCHAR
STARTCHAR a
ENCODING 97
SWIDTH 366 0
DWIDTH 10 0
BBX 10 16 0 0
BITMAP
0000001100
00001AFF50
0000BFEFA0
0007FA0F90
002FD01F90
00AF404FA0
02FB009FB0
08F401EFC0
0EC008FAE0
4F502FA4F1
9E00AF21F3
C905F800E5
E61ED100D7
CBDF4000B8
8FF60000A8
1840000044
ENDCHAR
STARTCHAR b
ENCODING 98
SWIDTH 442 0
DWIDTH 12 0
BBX 11 24 1 0
BITMAP
450000000000
AF2000000000
AF2000000000
AF1000000000
AF1000000000
AF0000000000
AE0000000000
AD0000000000
AC0000000000
BC0000453000
BB004DFFF600
BB06FE98EE10
CB6F91005F40
CDF900000F60
DFC000000F60
DF3000003F50
DA000000AF20
E6000005FA00
E600003EE200
E60004EF5000
E5019FE40000
E66EFC200000
DFFE60000000
BC7100000000
ENDCHAR
STARTCHAR c
ENCODING 99
SWIDTH 390 0
DWIDTH 11 0
BBX 10 17 0 0
BITMAP
0001670000
002EFF8000
00BF3BC000
03F808E000
07F302F000
0BD0005000
0DA0000000
0F60000000
2F40000000
3F20000000
4F1000001C
4F1000007E
2F200000DC
0D600003F7
09D1001CD1
02EC67DE30
004CFD8100
ENDCHAR
STARTCHAR d
ENCODING 100
SWIDTH 316 0
DWIDTH 9 0
BBX 8 28 0 -3
BITMAP
00000055
000000EA
000000DA
000000CA
000000BA
00000099
00000089
00000089
0000007A
0000006A
0001569A
005EFFFA
03FE62EA
0AF500BA
1FB000AB
4F6000AB
7F1000CB
9B0000EB
A90003FB
B70008FC
B7000EBC
B8006E5C
BC03E54C
8FBE804C
1AB5004C
0000004D
0000003C
00000003
ENDCHAR
STARTCHAR e
ENCODING 101
SWIDTH 461 0
DWIDTH 13 0
BBX 14 15 -1 0
BITMAP
000003ACA30000
00003EFBEF5000
0000DF400EE000
0006F7005FC000
000DD019FA1000
004FB8ED400000
00BFFE70000000
06FF9100000040
2FFF10000008F3
028E0000004FC0
007D000001DE20
006D00000BE400
004E1001BE4000
000EA68EC20000
0003DFD6000000
ENDCHAR
STARTCHAR f
ENCODING 102
SWIDTH 345 0
DWIDTH 10 0
BBX 10 25 0 0
BITMAP
0000BE7000
0006FFF500
000AF4AC00
000EE02D00
001FB00300
003F900000
004F800000
005F600000
006F500000
006F400000
006F300152
006F218EF3
005FAEFF70
01BFD96200
2EFF200000
272F300000
001F500000
001F600000
000F800000
000EA00000
000DB00000
000CC00000
000BC00000
000AC00000
0008A00000
ENDCHAR
STARTCHAR g
ENCODING 103
SWIDTH 437 0
DWIDTH 12 0
BBX 12 28 0 -12
BITMAP
000000144100
000005EFFD20
00007F94EF50
0004F602FF70
001D8008EF80
008D101E8F90
01F5007E3FA0
08D000D92FC0
0D8006F31FD0
3F300DB00FE0
6F007F400EF0
8D02EB000DF1
6F9DE2000CF2
1EFF40000BF3
027200000BF4
000000000BF5
000000000BF4
000000000BF3
000000000BF1
000000000DD0
000000000F90
000000004F50
000000008E10
00000002E800
0000000BE200
000001BF7000
0036AEF90000
005ADC500000
ENDCHAR
STARTCHAR h
ENCODING 104
SWIDTH 466 0
DWIDTH 13 0
BBX 13 22 0 -1
BITMAP
08200000000000
1F500000000000
1F600000000000
1F600000000000
1F600000000000
1F700000000000
1F700000000000
1F7000049A9200
1F8000AFFEFD00
1F8007FF707F20
1F802FF6006F20
1F909FA0006F30
1F91EE20006F30
1F96F800005F40
1FAAE100005F40
1FBF8000004F40
1FFF1000004F50
1FF90000004F50
1FF20000003F60
1F900000003F60
08100000002F60
00000000000300
ENDCHAR
STARTCHAR i
ENCODING 105
SWIDTH 132 0
DWIDTH 4 0
BBX 3 22 0 -1
BITMAP
3800
4D00
0000
0000
0000
0C60
0F80
1F80
1F80
1F80
1F80
1F80
1F80
1F70
0F70
0F70
0E70
0E70
0D70
0D80
0D80
0210
ENDCHAR
STARTCHAR j
ENCODING 106
SWIDTH 112 0
DWIDTH 3 0
BBX 8 33 -5 -10
BITMAP
00000041
000001E2
00000000
00000000
00000000
00000000
00000000
00000000
00000050
000003F3
000003F3
000003F3
000003F3
000003F3
000002F4
000002F5
000001F6
000000F7
000000E8
000000DA
000000CB
000000AC
000000AC
0000009D
0000008E
0000007E
0000008E
000000AC
720000D9
9D2003F5
1AE31CE0
006EFF60
00015500
ENDCHAR
STARTCHAR k
ENCODING 107
SWIDTH 428 0
DWIDTH 12 0
BBX 12 23 0 -1
BITMAP
014000000000
08E000000000
08F100000000
09F200000000
09F200000000
0AF100000061
0BF0000009F4
0BF000005FC0
0CE00001EF50
0CD00009FB00
0DC0005FE200
0DB001EF7000
0EA00AFB0000
0EA07FD10000
0FA5FE200000
0FEFD2000000
1FFC10000000
1FFD30000000
2FCEFA500000
3F605BFEA740
3F400028EFF1
4F2000000580
3B0000000000
ENDCHAR
STARTCHAR l
ENCODING 108
SWIDTH 137 0
DWIDTH 4 0
BBX 4 24 0 0
BITMAP
3B00
3F10
2F30
0F40
0D50
0C60
0B70
0A80
0990
09A0
08B0
07B0
07C0
07C0
06D0
06D0
06D0
06E0
07E0
07F0
08F0
09F1
0AF1
0260
ENDCHAR
STARTCHAR m
ENCODING 109
SWIDTH 579 0
DWIDTH 16 0
BBX 16 17 0 0
BITMAP
1C40000000000000
1F70000000000000
0E80000000012000
0D901650001EF600
0C909FF5008FFC00
0BA0EFFA01EDEF10
0AA3FCED06F48F30
09A6F38F0BC05F40
09B9D04F4F704F50
08CBA01FCF202F50
08DE600DFD001F50
07FF300AF8001F60
07FF0007F4000F80
06FC0003A1000EB0
05F9000000000CF2
05F60000000004E4
03B2000000000000
ENDCHAR
STARTCHAR n
ENCODING 110
SWIDTH 483 0
DWIDTH 14 0
BBX 13 17 0 0
BITMAP
01000000130000
2F100008EF8000
2F40009FEEF200
1F6005FC11D800
0F800CF3008C00
0EA02FA0007F00
0DC07F40006F20
0CD0AE00006F40
0BF0E900005F50
0AF4F400004F50
09F9E000003F60
08FEB000002F70
07FF7000001F70
06FF4000000F70
04FF1000000E70
03FD0000000D70
02E70000000410
ENDCHAR
STARTCHAR o
ENCODING 111
SWIDTH 266 0
DWIDTH 7 0
BBX 7 16 0 0
BITMAP
00262000
02EFE300
06FBBC00
09B00C50
0D6008B0
1F3006D0
3F2006E0
5F1006E0
6F1008E0
7F1009D0
7F100CB0
6F101F70
5F107F20
4F32EA00
2FDED200
09E91000
ENDCHAR
STARTCHAR p
ENCODING 112
SWIDTH 482 0
DWIDTH 14 0
BBX 13 23 0 -8
BITMAP
18100000000000
4F500039DED810
4F502BFA534CC0
3F37F920000AF0
3FDE4000001EB0
2FF40000009F30
1F90000007F600
1F5000008F8000
0F50002BF70000
0F6006EF600000
0E82BFE4000000
0EDEFB20000000
0DFE6000000000
0DC20000000000
0D800000000000
0D700000000000
0D600000000000
0E500000000000
0E500000000000
0F400000000000
1F300000000000
2F300000000000
18100000000000
ENDCHAR
STARTCHAR q
ENCODING 113
SWIDTH 408 0
DWIDTH 11 0
BBX 12 21 0 -8
BITMAP
000006DE8000
0000AFA7F300
0009E402F600
005F4004F800
00D80007FA00
06E1000AFC00
0C90000ECE00
2F40005F6F10
5F1000CB3F30
6F0007F51F50
3F858F800E70
08DDA4000D90
000000000BB0
0000000009D0
0000000007F0
0000000005F2
0000000003F4
0000000001F7
0000000000E9
0000000000DB
000000000079
ENDCHAR
STARTCHAR r
ENCODING 114
SWIDTH 396 0
DWIDTH 11 0
BBX 11 15 0 0
BITMAP
000000023200
3D1004DFFF50
3F403FF97510
0F60BF400000
0D81FA000000
0B94F5000000
08B6F2000000
06D7F0000000
04F8E0000000
01FBD0000000
00EEC0000000
00CFB0000000
00AFA0000000
007F80000000
003D50000000
ENDCHAR
STARTCHAR s
ENCODING 115
SWIDTH 366 0
DWIDTH 10 0
BBX 10 16 0 -1
BITMAP
0000000100
00006CFF50
002CD65910
01DC100000
09F2000000
1E90000000
4F30000000
4F20028B91
2FDBDFFFF9
08EE9400AD
00000001DA
0000001CE2
000003DF40
00007FE400
001CFD3000
0009700000
ENDCHAR
STARTCHAR t
ENCODING 116
SWIDTH 268 0
DWIDTH 8 0
BBX 9 23 -1 -1
BITMAP
0004100000
003F600000
003F500000
003F300000
004F200000
004F200000
004F203750
005FBEFF80
05DFFE8200
BFFF610000
CDBF100000
007F200000
006F300000
005F300000
005F400000
004F400000
003F500000
002F600000
001F600000
000F700000
000E700000
000E800000
0006300000
ENDCHAR
STARTCHAR u
ENCODING 117
SWIDTH 387 0
DWIDTH 11 0
BBX 10 15 0 -1
BITMAP
0820000350
1F500007F1
0F600007F1
0F600008F1
0F700008F0
0F800009F0
0E90000AF0
0D90000CF0
0DA0003FF0
0BB000AFF2
09D004FFF3
06F11DF5F5
01FADF60E8
007FE500BC
0002100037
ENDCHAR
STARTCHAR v
ENCODING 118
SWIDTH 354 0
DWIDTH 10 0
BBX 10 15 0 0
BITMAP
00000009E1
00000009F2
00000009F2
8B100009F2
5F80000AF2
0DF2000AF1
05FA000BF0
00BF300BE0
003FB00CD0
0009F50DC0
0001EE2EC0
00006FDFB0
00000BFFB0
000002EFB0
0000004E90
ENDCHAR
STARTCHAR w
ENCODING 119
SWIDTH 566 0
DWIDTH 16 0
BBX 15 15 0 0
BITMAP
0000002400000300
2D2000BF20000E50
2F8000EFB0000E80
0AE000FBF4000E80
04F502F6AD000E80
00EB03F62F700E80
008F25F508E10E80
003F76F401D90E90
000CD8F3005F3EA0
0006FDF2000BCEA0
0001FFF10002FFB0
0000AFF000008FC0
00004FE000001DD0
00000ED000000250
000006A000000000
ENDCHAR
STARTCHAR x
ENCODING 120
SWIDTH 454 0
DWIDTH 13 0
BBX 13 19 0 -2
BITMAP
0000006D200000
0000008F400000
0000009F300000
000000AF100000
6F6000BD000000
3FE100CA000000
06FA00E7000000
007F92F4000000
0006FEF2000000
00005FF4000000
00001FFE200000
00005FCFE20000
00008F23DE2000
0000CD002DE200
0001FA0002DD10
0004F600002C10
0008F300000000
000BE000000000
000AA000000000
ENDCHAR
STARTCHAR y
ENCODING 121
SWIDTH 363 0
DWIDTH 10 0
BBX 10 26 0 -11
BITMAP
0000000053
00000000A9
3A100000B9
4F900000C9
0BF30000D8
02FB0000E8
008F5000F8
000DD101F7
0004F902F7
00009F42F6
00001EE6F6
000006FFF6
000000BFF5
0000002FF4
00000008F3
00000005F2
00000006F1
00000007F0
00000008E0
00000009C0
0000000BB0
0000000CA0
0000000D90
0000000E70
0000000F60
0000000730
ENDCHAR
STARTCHAR z
ENCODING 122
SWIDTH 618 0
DWIDTH 17 0
BBX 18 15 0 -1
BITMAP
000000028DE0000000
000016CFEFF1000000
046AFFB53FD0000000
2EFC72009F60000000
01100001FE10000000
00000008F500000000
0000001EB000000000
0000008F2000000000
000001E90000000000
000006F20000000000
00000CB000000369B6
00002F80258CEFFFFB
00006FEEFFFEC96410
00009FEB8520000000
000021000000000000
ENDCHAR
STARTCHAR braceleft
ENCODING 123
SWIDTH 348 0
DWIDTH 10 0
BBX 10 27 0 -3
BITMAP
00005AB930
000AFB67E7
007F800032
00CC000000
00D9000000
00B9000000
006E100000
000D800000
0005F30000
0005F80000
3DEE910000
2DE1000000
01B9000000
002F600000
045DE00000
5FFE600000
9FB1000000
AD10000000
A900000000
BA00000000
9C00000000
6F20000000
1FB0000000
08FB200000
00BFF93000
0007EFF700
0000024100
ENDCHAR
STARTCHAR bar
ENCODING 124
SWIDTH 137 0
DWIDTH 4 0
BBX 4 24 0 0
BITMAP
3B00
3F10
2F30
0F40
0D50
0C60
0B70
0A80
0990
09A0
08B0
07B0
07C0
07C0
06D0
06D0
06D0
06E0
07E0
07F0
08F0
09F1
0AF1
0260
ENDCHAR
STARTCHAR braceright
ENCODING 125
SWIDTH 348 0
DWIDTH 10 0
BBX 10 28 -1 -4
BITMAP
0003200000
07EDFD4000
1E202CF300
000001EB00
0000008E00
0000006E00
0000008B00
000001E500
000009C000
00002F6000
00003FB540
0000028EF4
0000001E80
000000B800
000007F100
00000AFA91
0000019FF6
00000005F9
00000000AA
000000008A
000000009A
00000000C8
00000003F4
0000001CD0
000004DF60
0005CFF900
002EEB4000
0001000000
ENDCHAR
STARTCHAR asciitilde
ENCODING 126
SWIDTH 458 0
DWIDTH 13 0
BBX 11 5 1 15
BITMAP
07DEC3001730
8F85EC009F70
DB008F56FD10
83001CFFC200
000001660000
ENDCHAR
STARTCHAR nonbreakingspace
ENCODING 160
SWIDTH 450 0
DWIDTH 13 0
BBX 1 1 0 0
BITMAP
00
ENDCHAR
STARTCHAR exclamdown
ENCODING 161
SWIDTH 137 0
DWIDTH 4 0
BBX 4 19 0 -5
BITMAP
00B2
0030
0000
0000
0000
0000
0000
1A10
4F40
4F20
4F00
4F00
3F00
3F00
2F00
1F00
0F00
0E00
0200
ENDCHAR
STARTCHAR cent
ENCODING 162
SWIDTH 394 0
DWIDTH 11 0
BBX 10 22 0 -2
BITMAP
0000640000
0000B90000
00009A0000
0001AC0000
002DFFC200
00BF7EEE20
03F93D4F90
08F31E0340
0BD00E0000
0DA00E0000
0F700E0000
2F400D1000
3F200C1000
4F100C201C
4F100B208E
2F200B30DC
0D600B34F6
09D10C4BD1
02EC6DEE20
004CFFA100
00000E7000
00000C5000
ENDCHAR
STARTCHAR sterling
ENCODING 163
SWIDTH 539 0
DWIDTH 15 0
BBX 15 20 0 -1
BITMAP
0000000015882000
00000005DFDDE200
0000006FA201C700
000004F700001200
00000DA000000000
00006E1000000000
0000C90001000000
0246FCCEE7000000
9FFFFC9510000000
2659E00000000000
000BB00000000000
000D900000000000
000E700000000000
000F700000000000
001F600000000000
002F500025410000
002F505DFFFFB500
000F9BFC7448FF40
000CFA2000004200
0002300000000000
ENDCHAR
STARTCHAR currency
ENCODING 164
SWIDTH 500 0
DWIDTH 14 0
BBX 11 17 1 2
BITMAP
000000000410
000000001FC0
009700007F80
00CF4BD7DE10
008FFFEFF700
002FD21CE000
003F4005F000
006E0003F200
007E0002F300
005F0002F300
002F2006F200
005F501EF000
01EFC4CFB000
0AF6FFFFD000
5F904965F400
DE100000D500
840000000000
ENDCHAR
STARTCHAR yen
ENCODING 165
SWIDTH 478 0
DWIDTH 13 0
BBX 11 23 1 0
BITMAP
000000001740
05C200007FD0
03FA0001EF50
00DF3007FC00
007FA00DF300
001FF25F9000
000AFBBE1000
0003FFF80000
0000BFF20000
00004FD00000
00000CA00000
00000C900000
00024DCABDA0
0CFFFFFFFC40
06999EC41000
00000DA22000
268ACFFFFE10
5BA97EA22100
00000E900000
00000F900000
00000F900000
00000F800000
000009400000
ENDCHAR
STARTCHAR brokenbar
ENCODING 166
SWIDTH 137 0
DWIDTH 4 0
BBX 4 24 0 0
BITMAP
3B00
4F10
2F20
0F40
0E50
0D60
0B70
0A80
0990
0340
0000
05A0
06C0
05D0
05E0
05E0
05F0
05F0
06F0
06F0
07F0
09F1
0AF1
0260
ENDCHAR
STARTCHAR section
ENCODING 167
SWIDTH 366 0
DWIDTH 10 0
BBX 10 22 0 -1
BITMAP
000038BB10
001AEABC10
01CD200000
09F2000000
2F80000000
6F10000000
8D00004730
6F779EFFF4
2EFFD858F9
02EC1003F8
09E2000BE1
1F90008F40
4F4009F500
4F22BFCB91
2FEFFFFFF9
08EE9400AD
00000001DA
0000001CE2
000003DF40
00007FE400
001CFD3000
0009700000
ENDCHAR
STARTCHAR dieresis
ENCODING 168
SWIDTH 306 0
DWIDTH 9 0
BBX 7 2 1 19
BITMAP
2C905D40
2D607C20
ENDCHAR
STARTCHAR copyright
ENCODING 169
SWIDTH 485 0
DWIDTH 14 0
BBX 14 19 0 0
BITMAP
0000018CC81000
00003EFDCFD200
0002EE4003EC00
000CE200006F50
006F4179201FB0
00DA1DDEB00CE0
04F38F27E00AF2
09C0CB004009F3
0D70F7000009F2
1F32F5000009F1
4F13F40001DFD0
6E01F5000BFF80
8D00CA01AFFF20
8D004FDEF9EA00
7E0003862BE200
4F300000AF5000
0EC1004CF70000
07FEDEFE500000
008EEC71000000
ENDCHAR
STARTCHAR ordfeminine
ENCODING 170
SWIDTH 227 0
DWIDTH 6 0
BBX 6 8 0 4
BITMAP
000220
006DE2
04D1D2
0D33F3
690CB5
C28848
C7B029
791008
ENDCHAR
STARTCHAR guillemotleft
ENCODING 171
SWIDTH 652 0
DWIDTH 18 0
BBX 16 16 1 3
BITMAP
0000000000000010
000000001A1001D5
00000001CE103DE2
0000003DF404EE40
000005EF507FE400
00007FD309FC2000
000AFA11CF800000
01CE603DD3000000
3DD203EC10000000
9F6004FB10000000
2DF8106FE6000000
01AFD503DFC30000
0005DFB318EF9200
000018FFB42AFFA0
0000002BF7005E70
0000000040000000
ENDCHAR
STARTCHAR logicalnot
ENCODING 172
SWIDTH 539 0
DWIDTH 15 0
BBX 14 9 1 3
BITMAP
00000000012210
089ABCDEFFFF90
18887777666AA0
000000000007B0
000000000006D0
000000000006E0
000000000006F0
000000000006F1
00000000000240
ENDCHAR
STARTCHAR uni00AD
ENCODING 173
SWIDTH 399 0
DWIDTH 11 0
BBX 11 5 0 5
BITMAP
000000000100
00000028DF80
00005BFFE930
269EFC830000
6CB620000000
ENDCHAR
STARTCHAR registered
ENCODING 174
SWIDTH 382 0
DWIDTH 11 0
BBX 14 19 0 0
BITMAP
00000057510000
00003DFFFD3000
0003ED98AFE200
001C400002DB00
007B0000004F30
00E6D46BB60D90
05F1FE843C69D0
0AC0F5005E37F1
0D80F33BE406F3
2F50FBFA2007F3
4F20FFB10009F2
6F00F5CE600CE0
8E01F107EC5FA0
8D01F1002AFF40
7E00910003FB00
4F4000001DE200
0ED20004DE4000
07FFCBDFC30000
008EFEA5000000
ENDCHAR
STARTCHAR macron
ENCODING 175
SWIDTH 399 0
DWIDTH 11 0
BBX 11 3 0 18
BITMAP
0002468ABC50
6EFFFFDCBA40
143210000000
ENDCHAR
STARTCHAR degree
ENCODING 176
SWIDTH 201 0
DWIDTH 6 0
BBX 5 6 0 10
BITMAP
001200
09FF80
3E13E0
3D01E0
0DCD90
013200
ENDCHAR
STARTCHAR plusminus
ENCODING 177
SWIDTH 466 0
DWIDTH 13 0
BBX 11 14 0 2
BITMAP
000006100000
00002F100000
00002F100000
00002F100000
00002F100000
00002F102430
00002FAEFE60
0356BFC62000
7FEBBF600000
03003F600000
00000F600000
00000D602310
00246DEEFF80
08FDB9875420
ENDCHAR
STARTCHAR twosuperior
ENCODING 178
SWIDTH 318 0
DWIDTH 9 0
BBX 9 9 0 4
BITMAP
008DB00000
0A70C10000
5500A10000
0000C00000
0002A00000
0008500000
001C001510
00898BA400
00B7300000
ENDCHAR
STARTCHAR threesuperior
ENCODING 179
SWIDTH 280 0
DWIDTH 8 0
BBX 8 11 0 5
BITMAP
016BD200
5C519300
3202A000
001C2000
00BD9950
08C300A3
00000084
000001C0
00002C30
0005D300
001B2000
ENDCHAR
STARTCHAR acute
ENCODING 180
SWIDTH 155 0
DWIDTH 4 0
BBX 4 5 0 16
BITMAP
0002
01BC
0BF6
5F80
2500
ENDCHAR
STARTCHAR mu
ENCODING 181
SWIDTH 387 0
DWIDTH 11 0
BBX 10 19 0 -4
BITMAP
1E400006C1
2F500007F2
2F600007F3
2F700008F3
2F700009F4
2F800009F4
2F90000BF4
2FA0000EF4
3FB0006FF5
3FC000DFF5
3FE008FDF6
3FF25FD3F7
3FEFFC20C6
3F59600000
3F00000000
4E00000000
4D00000000
4D00000000
2400000000
ENDCHAR
STARTCHAR paragraph
ENCODING 182
SWIDTH 447 0
DWIDTH 13 0
BBX 12 18 0 0
BITMAP
000379BCDC70
01BFFFFFFFB0
0BFFFFFFA7C0
2FFFFFFF55C0
5FFFFFFF54D0
5FFFFF8F64E0
19DC822F74E0
0000001F84F0
0000000F94F0
0000000DA4F1
0000000CB4F2
0000000BC3F2
0000000AC3F3
00000009D2F3
00000008E0F4
00000008E0E4
00000008E0C5
000000047052
ENDCHAR
STARTCHAR periodcentered
ENCODING 183
SWIDTH 128 0
DWIDTH 4 0
BBX 3 2 0 6
BITMAP
3D80
3C40
ENDCHAR
STARTCHAR cedilla
ENCODING 184
SWIDTH 322 0
DWIDTH 9 0
BBX 8 11 1 -9
BITMAP
02000000
0E100000
3F300000
4F500000
2FF91000
09FFE800
0005DF90
00001FF1
0026CFF1
2EFFFC50
05642000
ENDCHAR
STARTCHAR onesuperior
ENCODING 185
SWIDTH 112 0
DWIDTH 3 0
BBX 3 10 0 4
BITMAP
1700
1D00
1E00
2E00
2E00
2F00
2F10
1F10
0E20
0C20
ENDCHAR
STARTCHAR ordmasculine
ENCODING 186
SWIDTH 212 0
DWIDTH 6 0
BBX 6 8 0 4
BITMAP
04B920
0C85B1
2D0087
6B0089
8A00A8
7A00E4
6B09B0
2DC810
ENDCHAR
STARTCHAR guillemotright
ENCODING 187
SWIDTH 625 0
DWIDTH 18 0
BBX 15 16 1 3
BITMAP
2300039100000000
9F9106FE70000000
2BFE704CFD400000
004CFD506DFB2000
00005DFB317EF910
0000006EF7018FD0
00000001BE0008F0
00000000CA001D90
00000009E201BD10
000001AF402DE200
00002DF505ED2000
0005EE409FD20000
009FD31CFB100000
0AFC11DF90000000
7F8008E500000000
7400031000000000
ENDCHAR
STARTCHAR onequarter
ENCODING 188
SWIDTH 678 0
DWIDTH 19 0
BBX 18 23 0 -3
BITMAP
000000065000000000
0000000E5000000000
0000004F1000000000
0000009B0000000000
010000D60000000000
1D0003F20000000000
1D0008C00000084000
1E000C7000008F7000
2E002F300004FF7000
2E006D00001ECE7000
2F00B80000BD1D7000
2F01F40008D20D7000
2F15E0006E200D7000
1F1A9005F4000DA687
0E2E505FA58BCFB763
0C5F16DB86310D7000
008B000000000D7000
00D6000000000D7000
02F1000000000D7000
07C0000000000D7000
0C70000000000D5000
0E2000000000000000
030000000000000000
ENDCHAR
STARTCHAR onehalf
ENCODING 189
SWIDTH 693 0
DWIDTH 19 0
BBX 16 23 1 -3
BITMAP
0000000380000000
00000009B0000000
0000000E60000000
0000003F10000000
3200008C00000000
760000D700000000
760002F200000000
770007D000000000
77000B8039A20000
77001F37E8C90000
78005E8C204D0000
7800ACB1003D0000
7900E400005B0000
6904E00000970000
4A09A00000E20000
390D600005C00000
003F10000D500001
007B00006D026AD8
00C70001EBCC8400
02F20004A5100000
06C0000000000000
0980000000000000
0120000000000000
ENDCHAR
STARTCHAR threequarters
ENCODING 190
SWIDTH 868 0
DWIDTH 24 0
BBX 19 23 1 -3
BITMAP
00000000000002800000
00001410000008C00000
017CEF9000000D700000
6E93069000002F200000
94000B3000007D3A0000
000099000000B8BD0000
0008D1000001F7FD0000
007FCCCA3006EBDD0000
06FD5004D30ADF5D0000
04500000A70EF83D0000
00000000C54FD03D0000
00000006D09F403D0000
0000006E30FF003E8A50
00001AE406F76BEE7510
0002DD201FFA623D0000
000791000E70003D0000
000000002F20003D0000
000000006C00003D0000
00000000B800003D0000
00000001F300003D0000
00000005D000003A0000
00000008900000000000
00000001200000000000
ENDCHAR
STARTCHAR questiondown
ENCODING 191
SWIDTH 541 0
DWIDTH 15 0
BBX 13 24 2 -2
BITMAP
000002E6000000
00000075000000
00000000000000
00000000000000
00000000000000
00000000000000
00000000000000
00000000000000
00000010000000
0005DFFC400000
0003426FF10000
00000009F20000
0000003EC00000
000003EE200000
00004FE4000000
0005FC20000000
005FA100000000
03E90000000000
0CB00000000000
5F200000000000
8D00000005BD50
9E300017DFF910
2BFEDEFDA51000
00245410000000
ENDCHAR
STARTCHAR Agrave
ENCODING 192
SWIDTH 390 0
DWIDTH 11 0
BBX 13 27 1 -2
BITMAP
00530000000000
009E2000000000
003FB000000000
0006F300000000
00004000000000
00B90000000000
00EF3000000000
01FF9000000000
02FFE100000000
04F5E500000000
06F28A00000000
07F13F10000000
09E00D60000000
0BD008B0000000
0CB004F2000000
0EA001F8003630
0F9000CE9EFEB0
2F8000CFB51020
3F705CFF400000
5FEFD85F800000
6FC4000AC00000
7F100006F10000
9C000001F40000
AA000000C80000
C90000007C0000
420000002D0000
00000000010000
ENDCHAR
STARTCHAR Aacute
ENCODING 193
SWIDTH 390 0
DWIDTH 11 0
BBX 14 28 0 -1
BITMAP
00003000000000
0007F200000000
006FB000000000
01FC1000000000
00610000000000
00000000000000
002E3000000000
005FB000000000
007FF300000000
008FF900000000
00AD6E00000000
00CB0E40000000
00DA09A0000000
00F804E1000000
02F700E5000000
03F500BB000000
05F4007F201561
06F3003FBBFEF5
08F2004FE83021
09F127EFD00000
0BFEFB69F20000
0CF91001F50000
0DA00000C90000
0F6000007D0000
1F4000003F2000
3F3000000D6000
14100000077000
00000000010000
ENDCHAR
STARTCHAR Acircumflex
ENCODING 194
SWIDTH 390 0
DWIDTH 11 0
BBX 15 31 -1 -1
BITMAP
0000100000000000
0006E30000000000
001EDE2000000000
007D19D100000000
01E500CB00000000
09C0001E90000000
2F300003FA000000
9A00000068000000
5100000000000000
0002E30000000000
0005FB0000000000
0007FF3000000000
0008FF9000000000
000AD6E000000000
000CB0E400000000
000DA09A00000000
000F804E10000000
002F700E50000000
003F500BB0000000
005F4007F2015610
006F3003FBBFEF50
008F2004FE830210
009F127EFD000000
00BFEFB69F200000
00CF91001F500000
00DA00000C900000
00F6000007D00000
01F4000003F20000
03F3000000D60000
0141000000770000
0000000000100000
ENDCHAR
STARTCHAR Atilde
ENCODING 195
SWIDTH 390 0
DWIDTH 11 0
BBX 15 29 -1 -1
BITMAP
02AEEA1003700000
0DE59F601EF20000
4F600DD2BF800000
290003FFF8000000
0000003740000000
0000000000000000
0000000000000000
0002E30000000000
0005FB0000000000
0007FF3000000000
0008FF9000000000
000AD6E000000000
000CB0E400000000
000DA09A00000000
000F804E10000000
002F700E50000000
003F500BB0000000
005F4007F2015610
006F3003FBBFEF50
008F2004FE830210
009F127EFD000000
00BFEFB69F200000
00CF91001F500000
00DA00000C900000
00F6000007D00000
01F4000003F20000
03F3000000D60000
0141000000770000
0000000000100000
ENDCHAR
STARTCHAR Adieresis
ENCODING 196
SWIDTH 390 0
DWIDTH 11 0
BBX 14 26 0 -1
BITMAP
04D509D1000000
05D30BB0000000
00000000000000
00000000000000
002E3000000000
005FB000000000
007FF300000000
008FF900000000
00AD6E00000000
00CB0E40000000
00DA09A0000000
00F804E1000000
02F700E5000000
03F500BB000000
05F4007F201561
06F3003FBBFEF5
08F2004FE83021
09F127EFD00000
0BFEFB69F20000
0CF91001F50000
0DA00000C90000
0F6000007D0000
1F4000003F2000
3F3000000D6000
14100000077000
00000000010000
ENDCHAR
STARTCHAR Aring
ENCODING 197
SWIDTH 390 0
DWIDTH 11 0
BBX 14 26 0 -1
BITMAP
049BA500000000
8FB8CF40000000
DB000E80000000
BD204F70000000
3DFFE810000000
005FB000000000
007FF300000000
009FF900000000
00AD6E00000000
00CB0E40000000
00DA09A0000000
00F804E1000000
01F700E5000000
03F500BB000000
05F4007F201561
06F3003FBBFEF5
08F2004FE83021
09F127EFD00000
0BFEFB69F20000
0CF91001F50000
0DA00000C90000
0F6000007D0000
1F4000003F2000
3F3000000D6000
14100000077000
00000000010000
ENDCHAR
STARTCHAR AE
ENCODING 198
SWIDTH 708 0
DWIDTH 20 0
BBX 20 21 0 0
BITMAP
002E3000000000015500
005FB003E30016CFB300
007FF304F918EFB30000
008FF900FDEFB3000000
00AD6E00EFB300000000
00CB0E40CB0000000000
00DA09A0AB0000000000
00F804E19B0000003000
02F700E58C00002A9000
03F500BB7D0019D50000
05F4007F8E28E9100000
06F3003FEFFC30000000
08F2004FFF9000000000
09F127EFFF7000000010
0BFEFB69FF60000008F5
0CF91001FF600003DE50
0DA00000CF60007FA100
0F6000007F603CE50000
1F4000005FBBFA100000
3F3000005FFD50000000
14100000145000000000
ENDCHAR
STARTCHAR Ccedilla
ENCODING 199
SWIDTH 487 0
DWIDTH 14 0
BBX 13 30 0 -9
BITMAP
00000035200000
000009FFF50000
00008F619D0000
0003F600070000
000AC000000000
002F5000000000
007E0000000000
00C90000000000
01F50000000000
05F10000000000
09C00000000000
0B900000000000
0E600000000010
1F400000000AD0
3F200000002F90
4F10000000BE20
4F20000007F500
2F5000005F7000
0CB00007F70000
05FA67DE400000
006EFE81000000
0000A900000000
0000C900000000
0000CE50000000
00008FFC400000
000006AFF90000
00000003DF5000
00000001BF8000
000048BFFF4000
00009EDB720000
ENDCHAR
STARTCHAR Egrave
ENCODING 200
SWIDTH 474 0
DWIDTH 13 0
BBX 12 26 1 0
BITMAP
002600000000
005F50000000
000DE1000000
0002E7000000
000032000000
000000002510
B700038DE700
ED04BFE71000
BFBFE7100000
9FE810000000
7F1000000000
5F0000000000
4F1000001100
3F200005E300
2F3003CE5000
1F42AF910000
1FBFA2000000
0FF500000000
0FB000000000
0FB0000003CA
0FB000008F91
0FB0003CE400
0FB018FA1000
0FD8ED500000
0FFF81000000
088200000000
ENDCHAR
STARTCHAR Eacute
ENCODING 201
SWIDTH 474 0
DWIDTH 13 0
BBX 12 25 1 0
BITMAP
000000300000
000006F30000
00006FC00000
0001EC100000
000061002510
B700038DE700
ED04BFE71000
BFBFE7100000
9FE810000000
7F1000000000
5F0000000000
4F1000001100
3F200005E300
2F3003CE5000
1F42AF910000
1FBFA2000000
0FF500000000
0FB000000000
0FB0000003CA
0FB000008F91
0FB0003CE400
0FB018FA1000
0FD8ED500000
0FFF81000000
088200000000
ENDCHAR
STARTCHAR Ecircumflex
ENCODING 202
SWIDTH 474 0
DWIDTH 13 0
BBX 12 30 1 0
BITMAP
000001000000
00007E300000
0001EDD10000
0008D0AC1000
002F501CA000
009B0002E800
03F300004F90
0A9000000770
051000000000
000000002510
B700038DE700
ED04BFE71000
BFBFE7100000
9FE810000000
7F1000000000
5F0000000000
4F1000001100
3F200005E300
2F3003CE5000
1F42AF910000
1FBFA2000000
0FF500000000
0FB000000000
0FB0000003CA
0FB000008F91
0FB0003CE400
0FB018FA1000
0FD8ED500000
0FFF81000000
088200000000
ENDCHAR
STARTCHAR Edieresis
ENCODING 203
SWIDTH 474 0
DWIDTH 13 0
BBX 12 25 1 0
BITMAP
006D40AC0000
007C20C90000
000000000000
000000000000
000000002510
B700038DE700
ED04BFE71000
BFBFE7100000
9FE810000000
7F1000000000
5F0000000000
4F1000001100
3F200005E300
2F3003CE5000
1F42AF910000
1FBFA2000000
0FF500000000
0FB000000000
0FB0000003CA
0FB000008F91
0FB0003CE400
0FB018FA1000
0FD8ED500000
0FFF81000000
088200000000
ENDCHAR
STARTCHAR Igrave
ENCODING 204
SWIDTH 153 0
DWIDTH 4 0
BBX 4 27 0 0
BITMAP
4500
7F30
1ED1
04F5
0031
0000
06B0
06F0
04F1
03F2
03F3
02F4
02F4
01F5
01F5
01F6
00F6
00F6
00F7
00F7
00E7
00E7
00E7
00D7
00D7
00C8
0085
ENDCHAR
STARTCHAR Iacute
ENCODING 205
SWIDTH 153 0
DWIDTH 4 0
BBX 4 27 1 0
BITMAP
0030
06F3
5FC0
ED20
6100
0000
6B00
6F00
4F10
3F20
3F30
2F40
2F40
1F50
1F50
1F60
0F60
0F60
0F70
0F70
0E70
0E70
0E70
0D70
0D70
0C80
0850
ENDCHAR
STARTCHAR Icircumflex
ENCODING 206
SWIDTH 153 0
DWIDTH 4 0
BBX 10 30 -2 0
BITMAP
0000100000
000AD10000
004FDB0000
00CA1C9000
05E202E700
0D80004F50
6D100007F6
D500000095
6000000000
0006B00000
0006F00000
0004F10000
0003F20000
0003F30000
0002F40000
0002F40000
0001F50000
0001F50000
0001F60000
0000F60000
0000F60000
0000F70000
0000F70000
0000E70000
0000E70000
0000E70000
0000D70000
0000D70000
0000C80000
0000850000
ENDCHAR
STARTCHAR Idieresis
ENCODING 207
SWIDTH 153 0
DWIDTH 4 0
BBX 7 25 -1 0
BITMAP
2C806D30
3D508C10
00000000
00000000
006B0000
006F0000
004F1000
003F2000
003F3000
002F4000
002F4000
001F5000
001F5000
001F6000
000F6000
000F6000
000F7000
000F7000
000E7000
000E7000
000E7000
000D7000
000D7000
000C8000
00085000
ENDCHAR
STARTCHAR Eth
ENCODING 208
SWIDTH 554 0
DWIDTH 16 0
BBX 15 21 0 0
BITMAP
0009000000000000
001F543210000000
00AFFFFFFDA61000
1CFF9212359EE600
4B8F600000008F50
003F600000000AB0
002F6000000007D0
001F6000000008A0
000F600000000C60
000E700000004F10
000D70000000C900
000C80000007E200
000B9000003E7000
000AB68502DC0000
39BEFFFA1CE20000
388EE840BF400000
0007C00AF6000000
0005C09F90000000
0003A7F900000000
00003F9000000000
0000790000000000
ENDCHAR
STARTCHAR Ntilde
ENCODING 209
SWIDTH 541 0
DWIDTH 15 0
BBX 15 26 0 0
BITMAP
006CED5000640000
05F95EE007F90000
0BD006F74FE20000
064000AFFD300000
0000000671041000
00000000000F8000
00000000000CD000
000000000009F000
2D4000000007F100
2FF400000006F200
0FFE20000005F200
0DFFC0000004F200
0CE8F8000003F300
0AE0AF400003F300
08E01CE20002F400
06F002EB0002F400
05F2004F8002F500
03F30007F402F500
01F50000AE12F500
00F700001DB3F600
00D9000002EBF600
00BC0000005FF800
009D00000008FD00
008E00000001FF10
007F000000008700
004C000000000000
ENDCHAR
STARTCHAR Ograve
ENCODING 210
SWIDTH 382 0
DWIDTH 11 0
BBX 11 25 0 0
BITMAP
000000800000
000001F90000
0000008F5000
0000000BC000
000000013000
000000000000
00002AC81000
0003EFFFC100
000DE505F900
007F2000BE00
00DB00006F20
04F600004F40
08F100003F50
0CC000003F50
1F8000004F40
3F5000006F30
5F2000008F10
7F000000BD00
8E000001FA00
8D000005F500
7E00000CE000
4F30005F6000
0EB104EC0000
07FEDFC10000
008ED8100000
ENDCHAR
STARTCHAR Oacute
ENCODING 211
SWIDTH 382 0
DWIDTH 11 0
BBX 11 25 0 0
BITMAP
000001200000
00001CB00000
0001CF500000
0007F7000000
000350000000
000000000000
00002AC81000
0003EFFFC100
000DE505F900
007F2000BE00
00DB00006F20
04F600004F40
08F100003F50
0CC000003F50
1F8000004F40
3F5000006F30
5F2000008F10
7F000000BD00
8E000001FA00
8D000005F500
7E00000CE000
4F30005F6000
0EB104EC0000
07FEDFC10000
008ED8100000
ENDCHAR
STARTCHAR Ocircumflex
ENCODING 212
SWIDTH 382 0
DWIDTH 11 0
BBX 11 26 0 0
BITMAP
0001E9000000
0009EF600000
002F54F40000
00AB006E3000
03F30009D200
0B900000CD20
4E1000002B10
24002AC81000
0003EFFFC100
000DE505F900
007F2000BE00
00DB00006F20
04F600004F40
08F100003F50
0CC000003F50
1F8000004F40
3F5000006F30
5F2000008F10
7F000000BD00
8E000001FA00
8D000005F500
7E00000CE000
4F30005F6000
0EB104EC0000
07FEDFC10000
008ED8100000
ENDCHAR
STARTCHAR Otilde
ENCODING 213
SWIDTH 382 0
DWIDTH 11 0
BBX 12 25 0 0
BITMAP
004CED700056
03FB4CF105FC
09F103F93EF3
0560008FFE40
000000057200
000000000000
00002AC81000
0003EFFFC100
000DE505F900
007F2000BE00
00DB00006F20
04F600004F40
08F100003F50
0CC000003F50
1F8000004F40
3F5000006F30
5F2000008F10
7F000000BD00
8E000001FA00
8D000005F500
7E00000CE000
4F30005F6000
0EB104EC0000
07FEDFC10000
008ED8100000
ENDCHAR
STARTCHAR Odieresis
ENCODING 214
SWIDTH 382 0
DWIDTH 11 0
BBX 11 23 0 0
BITMAP
00009D12C900
0000BA03D600
000000000000
000000000000
00002AC81000
0003EFFFC100
000DE505F900
007F2000BE00
00DB00006F20
04F600004F40
08F100003F50
0CC000003F50
1F8000004F40
3F5000006F30
5F2000008F10
7F000000BD00
8E000001FA00
8D000005F500
7E00000CE000
4F30005F6000
0EB104EC0000
07FEDFC10000
008ED8100000
ENDCHAR
STARTCHAR multiply
ENCODING 215
SWIDTH 454 0
DWIDTH 13 0
BBX 8 11 2 3
BITMAP
11000000
A9000057
2F4004F7
07E22EA0
00CDDC10
004FE200
01CEF300
0AD19C00
8E201F70
A6000AE0
00000140
ENDCHAR
STARTCHAR Oslash
ENCODING 216
SWIDTH 382 0
DWIDTH 11 0
BBX 11 23 0 -3
BITMAP
000000028100
00002ACCD000
0003EFFFD100
000DE51FF900
007F206EBE00
00DB00A96F20
04F600E54F40
08F104E13F50
0CC009A03F50
1F800D604F40
3F503F106F30
5F208C008F10
7F00C700BD00
8E02F201FA00
8D06D005F500
7E0B800CE000
4F4F305F6000
0EEE04EC0000
06FEDFC10000
00FFD8100000
04E000000000
06A000000000
012000000000
ENDCHAR
STARTCHAR Ugrave
ENCODING 217
SWIDTH 450 0
DWIDTH 13 0
BBX 13 27 0 -4
BITMAP
00005300000000
00009E20000000
00003FB0000000
000006F2000000
00000040000000
00000000003100
1840000000D900
2F90000001FB00
2F90000004FA00
1F90000006FA00
1F90000009F900
0F9000000BF800
0F9000000EF700
0E9000002FF700
0E9000005FF600
0D9000008FF500
0D900000CAF600
0D900002F5D700
0B900008E1C800
09C0001E70A900
05F500BD109B00
01DFBED2007D00
0029A710006E00
00000000004F00
00000000003F10
00000000001E00
00000000000100
ENDCHAR
STARTCHAR Uacute
ENCODING 218
SWIDTH 450 0
DWIDTH 13 0
BBX 13 25 0 -4
BITMAP
00000002100000
0000003E700000
000002EE200000
00000AE4003100
1840043000D900
2F90000001FB00
2F90000004FA00
1F90000006FA00
1F90000009F900
0F9000000BF800
0F9000000EF700
0E9000002FF700
0E9000005FF600
0D9000008FF500
0D900000CAF600
0D900002F5D700
0B900008E1C800
09C0001E70A900
05F500BD109B00
01DFBED2007D00
0029A710006E00
00000000004F00
00000000003F10
00000000001E00
00000000000100
ENDCHAR
STARTCHAR Ucircumflex
ENCODING 219
SWIDTH 450 0
DWIDTH 13 0
BBX 13 31 0 -4
BITMAP
00000100000000
00003E70000000
0000BEF5000000
0004F35E300000
000C9008E20000
005E1000BC1000
00D700001DD100
06D0000003B000
03300000000000
00000000003100
1840000000D900
2F90000001FB00
2F90000004FA00
1F90000006FA00
1F90000009F900
0F9000000BF800
0F9000000EF700
0E9000002FF700
0E9000005FF600
0D9000008FF500
0D900000CAF600
0D900002F5D700
0B900008E1C800
09C0001E70A900
05F500BD109B00
01DFBED2007D00
0029A710006E00
00000000004F00
00000000003F10
00000000001E00
00000000000100
ENDCHAR
STARTCHAR Udieresis
ENCODING 220
SWIDTH 450 0
DWIDTH 13 0
BBX 13 25 0 -4
BITMAP
0003C607D20000
0004D409B10000
00000000000000
00000000003100
1840000000D900
2F90000001FB00
2F90000004FA00
1F90000006FA00
1F90000009F900
0F9000000BF800
0F9000000EF700
0E9000002FF700
0E9000005FF600
0D9000008FF500
0D900000CAF600
0D900002F5D700
0B900008E1C800
09C0001E70A900
05F500BD109B00
01DFBED2007D00
0029A710006E00
00000000004F00
00000000003F10
00000000001E00
00000000000100
ENDCHAR
STARTCHAR Yacute
ENCODING 221
SWIDTH 483 0
DWIDTH 14 0
BBX 13 27 0 0
BITMAP
00000000200000
00000004E50000
0000003FD10000
000000CE300000
00000052000000
00000000000280
000000000006D0
00000000000A90
00000000000E50
76000000004F10
5F300000009B00
0CD1000000E700
03FB000005F200
007F80000AD000
000AF5001F8000
0001CF406F3000
00001DF6CD0000
000002DFF70000
0000003FF20000
0000000FB00000
0000003F600000
0000007F100000
000000CB000000
000002F6000000
000007F1000000
00000AC0000000
00000A70000000
ENDCHAR
STARTCHAR Thorn
ENCODING 222
SWIDTH 398 0
DWIDTH 11 0
BBX 11 23 0 0
BITMAP
058000000000
09F000000000
0AC000000000
0BA000000000
0B9000142000
0C904CFFF700
0DA5FD88EF20
0EDEA1003F70
0EFC00000D80
0FF300000D80
0FA000001F70
1F8000007F30
1F800003FA00
2F70003DC100
2F7006EA1000
2F76DF700000
2FFFA2000000
2FC300000000
2F7000000000
2F7000000000
1F8000000000
0F9000000000
052000000000
ENDCHAR
STARTCHAR germandbls
ENCODING 223
SWIDTH 537 0
DWIDTH 15 0
BBX 15 21 0 0
BITMAP
0000000243000000
000006CFFFA00000
4B14DE942AD00000
3FCF91000C900000
0DF600006F200000
0BD00002E6000000
09D0001D90000000
07E000BA269A9500
05F11BEBEA76CF50
02F5BFE710002F40
00FFFD2000005D00
00DFD1000001D400
00BF4000000B9000
008D000000BC1000
006D00000AE20000
004F0000AF400000
002F300AF6000000
000E508F70000000
000C73F700000000
000A802000000000
0006400000000000
ENDCHAR
STARTCHAR agrave
ENCODING 224
SWIDTH 366 0
DWIDTH 10 0
BBX 10 21 0 0
BITMAP
0007200000
000CC10000
0005F90000
00008F1000
0000040000
0000001100
00001AFF50
0000BFEFA0
0007FA0F90
002FD01F90
00AF404FA0
02FB009FB0
08F401EFC0
0EC008FAE0
4F502FA4F1
9E00AF21F3
C905F800E5
E61ED100D7
CBDF4000B8
8FF60000A8
1840000044
ENDCHAR
STARTCHAR aacute
ENCODING 225
SWIDTH 366 0
DWIDTH 10 0
BBX 10 21 0 0
BITMAP
0000002000
000004E500
00004FD100
0000DD2000
0000520000
0000001100
00001AFF50
0000BFEFA0
0007FA0F90
002FD01F90
00AF404FA0
02FB009FB0
08F401EFC0
0EC008FAE0
4F502FA4F1
9E00AF21F3
C905F800E5
E61ED100D7
CBDF4000B8
8FF60000A8
1840000044
ENDCHAR
STARTCHAR acircumflex
ENCODING 226
SWIDTH 366 0
DWIDTH 10 0
BBX 10 27 0 0
BITMAP
0000100000
0004F50000
000CEF4000
005F27E200
00D800AD10
06E1001CB0
1E600002EC
7C0000004A
4200000000
0000000000
0000000000
0000001100
00001AFF50
0000BFEFA0
0007FA0F90
002FD01F90
00AF404FA0
02FB009FB0
08F401EFC0
0EC008FAE0
4F502FA4F1
9E00AF21F3
C905F800E5
E61ED100D7
CBDF4000B8
8FF60000A8
1840000044
ENDCHAR
STARTCHAR atilde
ENCODING 227
SWIDTH 366 0
DWIDTH 10 0
BBX 12 21 0 0
BITMAP
01AEEA100381
0CE58F701DF2
3F700DD3AF90
190003FFF900
000000274000
000000110000
00001AFF5000
0000BFEFA000
0007FA0F9000
002FD01F9000
00AF404FA000
02FB009FB000
08F401EFC000
0EC008FAE000
4F502FA4F100
9E00AF21F300
C905F800E500
E61ED100D700
CBDF4000B800
8FF60000A800
184000004400
ENDCHAR
STARTCHAR adieresis
ENCODING 228
SWIDTH 366 0
DWIDTH 10 0
BBX 10 21 0 0
BITMAP
005D40AC00
007C20CA00
0000000000
0000000000
0000000000
0000001100
00001AFF50
0000BFEFA0
0007FA0F90
002FD01F90
00AF404FA0
02FB009FB0
08F401EFC0
0EC008FAE0
4F502FA4F1
9E00AF21F3
C905F800E5
E61ED100D7
CBDF4000B8
8FF60000A8
1840000044
ENDCHAR
STARTCHAR aring
ENCODING 229
SWIDTH 366 0
DWIDTH 10 0
BBX 10 19 0 0
BITMAP
0005BEEB20
006FA57EB0
008E0009D0
005F845EA0
0007CFFF60
0000BFEFA0
0008FA0F90
002FD01F90
00AF404FA0
02FB009FB0
08F401EFC0
0EC008FAE0
4F502FA4F1
9E00AF21F3
C905F800E5
E61ED100D7
CBDF4000B8
8FF60000A8
1840000044
ENDCHAR
STARTCHAR ae
ENCODING 230
SWIDTH 705 0
DWIDTH 20 0
BBX 20 16 0 0
BITMAP
0000001100017A810000
00001AFF503EFEFE3000
0000BFEFA0CF602ED000
0007FA0F96F8004FD000
002FD01F9CD107FB1000
00AF404FDFA7DE600000
02FB009FFFFF81000000
08F401EFFFB200000020
0EC008FFFF10000007F3
4F502FA7FD0000003FC0
9E00AF22FC000001DF30
C905F800EC00000AF500
E61ED100DD0001AE5000
CBDF4000BF946DD30000
8FF60000ACEFE7100000
18400000440200000000
ENDCHAR
STARTCHAR ccedilla
ENCODING 231
SWIDTH 390 0
DWIDTH 11 0
BBX 10 26 0 -9
BITMAP
0001670000
002EFF8000
00BF3BC000
03F808E000
07F302F000
0BD0005000
0DA0000000
0F60000000
2F40000000
3F20000000
4F1000001C
4F1000007E
2F200000DC
0D600003F7
09D1001CD1
02EC67DE30
004EFD8100
000E600000
001F700000
000EF92000
0007FFF810
000015DFB0
0000001DF3
0000049FF5
000BFFFE80
0006764100
ENDCHAR
STARTCHAR egrave
ENCODING 232
SWIDTH 461 0
DWIDTH 13 0
BBX 14 21 -1 0
BITMAP
00000450000000
000007F3000000
000001ED100000
0000003F500000
00000003100000
00000000000000
000003ACA30000
00003EFBEF5000
0000DF400EE000
0006F7005FC000
000DD019FA1000
004FB8ED400000
00BFFE70000000
06FF9100000040
2FFF10000008F3
028E0000004FC0
007D000001DE20
006D00000BE400
004E1001BE4000
000EA68EC20000
0003DFD6000000
ENDCHAR
STARTCHAR eacute
ENCODING 233
SWIDTH 461 0
DWIDTH 13 0
BBX 14 21 -1 0
BITMAP
00000000120000
00000001CA0000
0000001DF40000
0000008F600000
00000034000000
00000000000000
000003ACA30000
00003EFBEF5000
0000DF400EE000
0006F7005FC000
000DD019FA1000
004FB8ED400000
00BFFE70000000
06FF9100000040
2FFF10000008F3
028E0000004FC0
007D000001DE20
006D00000BE400
004E1001BE4000
000EA68EC20000
0003DFD6000000
ENDCHAR
STARTCHAR ecircumflex
ENCODING 234
SWIDTH 461 0
DWIDTH 13 0
BBX 14 26 -1 0
BITMAP
000001D9000000
000008EE700000
00001E63E50000
00009C005F3000
0002F30008E200
000AA00000BE30
003E2000001B20
00240000000000
00000000000000
00000000000000
00000000000000
000003ACA30000
00003EFBEF5000
0000DF400EE000
0006F7005FC000
000DD019FA1000
004FB8ED400000
00BFFE70000000
06FF9100000040
2FFF10000008F3
028E0000004FC0
007D000001DE20
006D00000BE400
004E1001BE4000
000EA68EC20000
0003DFD6000000
ENDCHAR
STARTCHAR edieresis
ENCODING 235
SWIDTH 461 0
DWIDTH 13 0
BBX 14 21 -1 0
BITMAP
00002C906D4000
00002D607C2000
00000000000000
00000000000000
00000000000000
00000000000000
000003ACA30000
00003EFBEF5000
0000DF400EE000
0006F7005FC000
000DD019FA1000
004FB8ED400000
00BFFE70000000
06FF9100000040
2FFF10000008F3
028E0000004FC0
007D000001DE20
006D00000BE400
004E1001BE4000
000EA68EC20000
0003DFD6000000
ENDCHAR
STARTCHAR igrave
ENCODING 236
SWIDTH 132 0
DWIDTH 4 0
BBX 4 24 -1 -1
BITMAP
1900
2F90
09F4
00BA
0012
0000
0000
00C6
00F8
01F8
01F8
01F8
01F8
01F8
01F8
01F7
00F7
00F7
00E7
00E7
00D7
00D8
00D8
0021
ENDCHAR
STARTCHAR iacute
ENCODING 237
SWIDTH 132 0
DWIDTH 4 0
BBX 5 25 0 -1
BITMAP
001700
01BF10
0BF700
2F7000
020000
000000
000000
000000
0C6000
0F8000
1F8000
1F8000
1F8000
1F8000
1F8000
1F8000
1F7000
0F7000
0F7000
0E7000
0E7000
0D7000
0D8000
0D8000
021000
ENDCHAR
STARTCHAR icircumflex
ENCODING 238
SWIDTH 132 0
DWIDTH 4 0
BBX 10 28 -3 -1
BITMAP
0000100000
0008E20000
002FDD1000
00AB0BB000
03F301D900
0B90003F70
4E100006F8
C700000086
6000000000
0000000000
0000000000
0000C60000
0000F80000
0001F80000
0001F80000
0001F80000
0001F80000
0001F80000
0001F80000
0001F70000
0000F70000
0000F70000
0000E70000
0000E70000
0000D70000
0000D80000
0000D80000
0000210000
ENDCHAR
STARTCHAR idieresis
ENCODING 239
SWIDTH 132 0
DWIDTH 4 0
BBX 6 22 -1 -1
BITMAP
8D12C9
AB02D6
000000
000000
000000
00C600
00F800
01F800
01F800
01F800
01F800
01F800
01F800
01F700
00F700
00F700
00E700
00E700
00D700
00D800
00D800
002100
ENDCHAR
STARTCHAR eth
ENCODING 240
SWIDTH 481 0
DWIDTH 13 0
BBX 13 19 1 -1
BITMAP
00001100000000
0000DC00000000
00007F40000000
00001DB0000000
000006F4000000
000024EC8ACD20
004FFFFFDA6300
0027531DA00000
00000007F10000
00696102F50000
06FFFD40D80000
0DD79EF4A90000
1F5002DEC80000
1F20002FF60000
0E40000FF10000
09B0007F800000
02EB7AFA000000
003DFE60000000
00003000000000
ENDCHAR
STARTCHAR ntilde
ENCODING 241
SWIDTH 483 0
DWIDTH 14 0
BBX 13 23 0 0
BITMAP
0008DEC3001730
008F76FB00AF60
00EB009F57FC00
0082001DFFC100
00000001660000
00000000000000
01000000130000
2F100008EF8000
2F40009FEEF200
1F6005FC11D800
0F800CF3008C00
0EA02FA0007F00
0DC07F40006F20
0CD0AE00006F40
0BF0E900005F50
0AF4F400004F50
09F9E000003F60
08FEB000002F70
07FF7000001F70
06FF4000000F70
04FF1000000E70
03FD0000000D70
02E70000000410
ENDCHAR
STARTCHAR ograve
ENCODING 242
SWIDTH 266 0
DWIDTH 7 0
BBX 7 21 0 0
BITMAP
01700000
03F70000
00BF3000
001D9000
00023000
00262000
02EFE300
06FBBC00
09B00C50
0D6008B0
1F3006D0
3F2006E0
5F1006E0
6F1008E0
7F1009D0
7F100CB0
6F101F70
5F107F20
4F32EA00
2FDED200
09E91000
ENDCHAR
STARTCHAR oacute
ENCODING 243
SWIDTH 266 0
DWIDTH 7 0
BBX 7 21 0 0
BITMAP
00000300
0000AE00
000AF800
004F9000
00160000
00262000
02EFE300
06FBBC00
09B00C50
0D6008B0
1F3006D0
3F2006E0
5F1006E0
6F1008E0
7F1009D0
7F100CB0
6F101F70
5F107F20
4F32EA00
2FDED200
09E91000
ENDCHAR
STARTCHAR ocircumflex
ENCODING 244
SWIDTH 266 0
DWIDTH 7 0
BBX 10 27 -1 0
BITMAP
0000100000
0009D10000
003FDC0000
00BB0CA000
04F202E800
0C80004F60
5E100006F7
D600000095
6000000000
0000000000
0000000000
0002620000
002EFE3000
006FBBC000
009B00C500
00D6008B00
01F3006D00
03F2006E00
05F1006E00
06F1008E00
07F1009D00
07F100CB00
06F101F700
05F107F200
04F32EA000
02FDED2000
009E910000
ENDCHAR
STARTCHAR otilde
ENCODING 245
SWIDTH 266 0
DWIDTH 7 0
BBX 11 21 -1 0
BITMAP
05CED5000650
5F95DE007FA0
BE005F84FE20
64000AFFD300
000000571000
000262000000
002EFE300000
006FBBC00000
009B00C50000
00D6008B0000
01F3006D0000
03F2006E0000
05F1006E0000
06F1008E0000
07F1009D0000
07F100CB0000
06F101F70000
05F107F20000
04F32EA00000
02FDED200000
009E91000000
ENDCHAR
STARTCHAR odieresis
ENCODING 246
SWIDTH 266 0
DWIDTH 7 0
BBX 7 21 0 0
BITMAP
09C02C80
0BA03D50
00000000
00000000
00000000
00262000
02EFE300
06FBBC00
09B00C50
0D6008B0
1F3006D0
3F2006E0
5F1006E0
6F1008E0
7F1009D0
7F100CB0
6F101F70
5F107F20
4F32EA00
2FDED200
09E91000
ENDCHAR
STARTCHAR divide
ENCODING 247
SWIDTH 345 0
DWIDTH 10 0
BBX 9 9 0 3
BITMAP
0002D20000
0001C10000
0000000110
168ABDFFD0
2BA9987650
0000000000
0000000000
0000B60000
0000A40000
ENDCHAR
STARTCHAR oslash
ENCODING 248
SWIDTH 266 0
DWIDTH 7 0
BBX 9 20 -1 -3
BITMAP
0000000320
0002621F40
002EFE9E00
006FBBF800
009B02F600
00D607FB00
01F30DDD00
03F23F7E00
05F18B6E00
06F1D58E00
07F4E19D00
07FAA0CB00
06FF41F700
05FE07F200
04F82EA000
03FDED2000
06FE910000
0C70000000
1F20000000
0200000000
ENDCHAR
STARTCHAR ugrave
ENCODING 249
SWIDTH 387 0
DWIDTH 11 0
BBX 10 22 0 -1
BITMAP
0004500000
0007E30000
0001ED0000
00004F5000
0000031000
0000000000
0000000000
0820000350
1F500007F1
0F600007F1
0F600008F1
0F700008F0
0F800009F0
0E90000AF0
0D90000CF0
0DA0003FF0
0BB000AFF2
09D004FFF3
06F11DF5F5
01FADF60E8
007FE500BC
0002100037
ENDCHAR
STARTCHAR uacute
ENCODING 250
SWIDTH 387 0
DWIDTH 11 0
BBX 10 22 0 -1
BITMAP
0000001100
000002D900
00001DF400
00009F5000
0000340000
0000000000
0000000000
0820000350
1F500007F1
0F600007F1
0F600008F1
0F700008F0
0F800009F0
0E90000AF0
0D90000CF0
0DA0003FF0
0BB000AFF2
09D004FFF3
06F11DF5F5
01FADF60E8
007FE500BC
0002100037
ENDCHAR
STARTCHAR ucircumflex
ENCODING 251
SWIDTH 387 0
DWIDTH 11 0
BBX 11 27 0 -1
BITMAP
0001DA000000
0008EE800000
001E63E50000
009C005F4000
02F40008E200
0AA00000BE30
3E2000001B20
240000000000
000000000000
000000000000
000000000000
000000000000
082000035000
1F500007F100
0F600007F100
0F600008F100
0F700008F000
0F800009F000
0E90000AF000
0D90000CF000
0DA0003FF000
0BB000AFF200
09D004FFF300
06F11DF5F500
01FADF60E800
007FE500BC00
000210003700
ENDCHAR
STARTCHAR udieresis
ENCODING 252
SWIDTH 387 0
DWIDTH 11 0
BBX 10 22 0 -1
BITMAP
002C806D30
003D508C20
0000000000
0000000000
0000000000
0000000000
0000000000
0820000350
1F500007F1
0F600007F1
0F600008F1
0F700008F0
0F800009F0
0E90000AF0
0D90000CF0
0DA0003FF0
0BB000AFF2
09D004FFF3
06F11DF5F5
01FADF60E8
007FE500BC
0002100037
ENDCHAR
STARTCHAR yacute
ENCODING 253
SWIDTH 363 0
DWIDTH 10 0
BBX 10 32 0 -11
BITMAP
0000002000
000005F400
00004FD100
0000DD2000
0000610000
0000000000
0000000053
00000000A9
3A100000B9
4F900000C9
0BF30000D8
02FB0000E8
008F5000F8
000DD101F7
0004F902F7
00009F42F6
00001EE6F6
000006FFF6
000000BFF5
0000002FF4
00000008F3
00000005F2
00000006F1
00000007F0
00000008E0
00000009C0
0000000BB0
0000000CA0
0000000D90
0000000E70
0000000F60
0000000730
ENDCHAR
STARTCHAR thorn
ENCODING 254
SWIDTH 439 0
DWIDTH 12 0
BBX 12 20 0 -1
BITMAP
030000000000
2F5000000000
2F6004AEEC70
2F51AE9535D8
1F8EA10000CA
1FF8000002F6
0FC0000009C0
0E7000007E30
0D600007F400
0C7001AF5000
0B904EE40000
0BC9FD300000
0AFFB1000000
0AE700000000
0B9000000000
0B8000000000
0C7000000000
0D6000000000
0E6000000000
093000000000
ENDCHAR
STARTCHAR ydieresis
ENCODING 255
SWIDTH 363 0
DWIDTH 10 0
BBX 10 32 0 -11
BITMAP
005D40AC00
007C20C900
0000000000
0000000000
0000000000
0000000000
0000000053
00000000A9
3A100000B9
4F900000C9
0BF30000D8
02FB0000E8
008F5000F8
000DD101F7
0004F902F7
00009F42F6
00001EE6F6
000006FFF6
000000BFF5
0000002FF4
00000008F3
00000005F2
00000006F1
00000007F0
00000008E0
00000009C0
0000000BB0
0000000CA0
0000000D90
0000000E70
0000000F60
0000000730
ENDCHAR
STARTCHAR Amacron
ENCODING 256
SWIDTH 390 0
DWIDTH 11 0
BBX 14 26 0 -1
BITMAP
0013568ABC1000
BEFFFEDCBA1000
34210000000000
00000000000000
002E3000000000
005FB000000000
007FF300000000
008FF900000000
00AD6E00000000
00CB0E40000000
00DA09A0000000
00F804E1000000
02F700E5000000
03F500BB000000
05F4007F201561
06F3003FBBFEF5
08F2004FE83021
09F127EFD00000
0BFEFB69F20000
0CF91001F50000
0DA00000C90000
0F6000007D0000
1F4000003F2000
3F3000000D6000
14100000077000
00000000010000
ENDCHAR
STARTCHAR amacron
ENCODING 257
SWIDTH 366 0
DWIDTH 10 0
BBX 11 21 0 0
BITMAP
0012468ABC20
AEFFFEDCBA20
243100000000
000000000000
000000000000
000000110000
00001AFF5000
0000BFEFA000
0007FA0F9000
002FD01F9000
00AF404FA000
02FB009FB000
08F401EFC000
0EC008FAE000
4F502FA4F100
9E00AF21F300
C905F800E500
E61ED100D700
CBDF4000B800
8FF60000A800
184000004400
ENDCHAR
STARTCHAR Abreve
ENCODING 258
SWIDTH 390 0
DWIDTH 11 0
BBX 14 28 0 -1
BITMAP
02300008200000
07E2009F300000
00BE8BFA000000
001BFF90000000
00003200000000
00000000000000
002E3000000000
005FB000000000
007FF300000000
008FF900000000
00AD6E00000000
00CB0E40000000
00DA09A0000000
00F804E1000000
02F700E5000000
03F500BB000000
05F4007F201561
06F3003FBBFEF5
08F2004FE83021
09F127EFD00000
0BFEFB69F20000
0CF91001F50000
0DA00000C90000
0F6000007D0000
1F4000003F2000
3F3000000D6000
14100000077000
00000000010000
ENDCHAR
STARTCHAR abreve
ENCODING 259
SWIDTH 366 0
DWIDTH 10 0
BBX 10 21 0 0
BITMAP
0041000380
00D9002DC0
003FB8DF40
0004EFE400
0000141000
0000001100
00001AFF50
0000BFEFA0
0007FA0F90
002FD01F90
00AF404FA0
02FB009FB0
08F401EFC0
0EC008FAE0
4F502FA4F1
9E00AF21F3
C905F800E5
E61ED100D7
CBDF4000B8
8FF60000A8
1840000044
ENDCHAR
STARTCHAR Aogonek
ENCODING 260
SWIDTH 390 0
DWIDTH 11 0
BBX 14 28 0 -7
BITMAP
002E3000000000
005FB000000000
007FF300000000
008FF900000000
00AD6E00000000
00CB0E40000000
00DA09A0000000
00F804E1000000
02F700E5000000
03F500BB000000
05F4007F201561
06F3003FBBFEF5
08F2004FE83021
09F127EFD00000
0BFEFB69F20000
0CF91001F50000
0DA00000C90000
0F6000007D0000
1F4000003F2000
3F3000000E6000
141000000B7000
00000000CF3000
00000008F30000
0000000EA00000
0000001F600000
0000000F800483
00000009FBDFF4
000000008CC930
ENDCHAR
STARTCHAR aogonek
ENCODING 261
SWIDTH 366 0
DWIDTH 10 0
BBX 13 22 0 -6
BITMAP
00000011000000
00001AFF500000
0000BFEFA00000
0007FA0F900000
002FD01F900000
00AF404FA00000
02FB009FB00000
08F401EFC00000
0EC008FAE00000
4F502FA4F10000
9E00AF21F30000
C905F800E50000
E61ED100D70000
CBDF4000C80000
8FF60001C80000
1840001CE40000
0000008F300000
000000DA000000
000000F6000000
000000E9004940
0000008FCEFF40
00000007BB9300
ENDCHAR
STARTCHAR Cacute
ENCODING 262
SWIDTH 487 0
DWIDTH 14 0
BBX 13 26 0 -1
BITMAP
00000001100000
0000002D900000
000001DF300000
000009F5000000
00000365200000
000009FFF50000
00008F619D0000
0003F600070000
000AC000000000
002F5000000000
007E0000000000
00C90000000000
01F50000000000
05F10000000000
09C00000000000
0B900000000000
0E600000000010
1F400000000AD0
3F200000002F90
4F10000000BE20
4F20000007F500
2F5000005F7000
0CB00007F70000
05FA67DD400000
006EFE81000000
00001000000000
ENDCHAR
STARTCHAR cacute
ENCODING 263
SWIDTH 390 0
DWIDTH 11 0
BBX 10 23 0 0
BITMAP
0000003000
00000AE000
00009F8000
0004FA0000
0001600000
0000000000
0001670000
002EFF8000
00BF3BC000
03F808E000
07F302F000
0BD0005000
0DA0000000
0F60000000
2F40000000
3F20000000
4F1000001C
4F1000007E
2F200000DC
0D600003F7
09D1001CD1
02EC67DE30
004CFD8100
ENDCHAR
STARTCHAR Ccircumflex
ENCODING 264
SWIDTH 487 0
DWIDTH 14 0
BBX 13 29 0 -1
BITMAP
00000AC1000000
00004FEB000000
0000C91D900000
0005E102E70000
000D70005F5000
006D000008F600
01E50000009400
00600035200000
000009FFF50000
00008F619D0000
0003F600070000
000AC000000000
002F5000000000
007E0000000000
00C90000000000
01F50000000000
05F10000000000
09C00000000000
0B900000000000
0E600000000010
1F400000000AD0
3F200000002F90
4F10000000BE20
4F20000007F500
2F5000005F7000
0CB00007F70000
05FA67DD400000
006EFE81000000
00001000000000
ENDCHAR
STARTCHAR ccircumflex
ENCODING 265
SWIDTH 390 0
DWIDTH 11 0
BBX 11 26 0 0
BITMAP
0001DA000000
0007EE800000
001E62E60000
008D005F4000
02F40008E200
09B00000BE40
2F2000001B20
240000000000
000000000000
000167000000
002EFF800000
00BF3BC00000
03F808E00000
07F302F00000
0BD000500000
0DA000000000
0F6000000000
2F4000000000
3F2000000000
4F1000001C00
4F1000007E00
2F200000DC00
0D600003F700
09D1001CD100
02EC67DE3000
004CFD810000
ENDCHAR
STARTCHAR Cdotaccent
ENCODING 266
SWIDTH 487 0
DWIDTH 14 0
BBX 13 25 0 -1
BITMAP
000004F8000000
000003A3000000
00000000000000
00000035200000
000009FFF50000
00008F619D0000
0003F600070000
000AC000000000
002F5000000000
007E0000000000
00C90000000000
01F50000000000
05F10000000000
09C00000000000
0B900000000000
0E600000000010
1F400000000AD0
3F200000002F90
4F10000000BE20
4F20000007F500
2F5000005F7000
0CB00007F70000
05FA67DD400000
006EFE81000000
00001000000000
ENDCHAR
STARTCHAR cdotaccent
ENCODING 267
SWIDTH 390 0
DWIDTH 11 0
BBX 10 19 0 0
BITMAP
0006E00000
0004600000
0001660000
003EFF7000
00CE2CC000
03F809D000
08F203E000
0CC0005000
0E90000000
1F60000000
3F30000000
4F10000000
5F0000001B
5F0000008D
3F200000DB
0E500004F6
0AC0001CD0
03FC67DD20
004DFD8100
ENDCHAR
STARTCHAR Ccaron
ENCODING 268
SWIDTH 487 0
DWIDTH 14 0
BBX 13 28 0 -1
BITMAP
00420000000000
005D100002D700
0009B0003E7000
0000C804D50000
00002EAD300000
000005A1000000
00000035200000
000009FFF50000
00008F619D0000
0003F600070000
000AC000000000
002F5000000000
007E0000000000
00C90000000000
01F50000000000
05F10000000000
09C00000000000
0B900000000000
0E600000000010
1F400000000AD0
3F200000002F90
4F10000000BE20
4F20000007F500
2F5000005F7000
0CB00007F70000
05FA67DD400000
006EFE81000000
00001000000000
ENDCHAR
STARTCHAR ccaron
ENCODING 269
SWIDTH 390 0
DWIDTH 11 0
BBX 11 23 0 0
BITMAP
060000000000
0B8000006E10
01D50007D300
004E308C1000
0007DBA10000
000097000000
000167000000
002EFF800000
00BF3BC00000
03F808E00000
07F302F00000
0BD000500000
0DA000000000
0F6000000000
2F4000000000
3F2000000000
4F1000001C00
4F1000007E00
2F200000DC00
0D600003F700
09D1001CD100
02EC67DE3000
004CFD810000
ENDCHAR
STARTCHAR Dcaron
ENCODING 270
SWIDTH 554 0
DWIDTH 16 0
BBX 15 27 0 0
BITMAP
0002400000000000
0002E300000AB000
00005E2001BB1000
000008C01C800000
000000CBD6000000
0000002A40000000
0009000000000000
001F543210000000
00AFFFFFFDA61000
1CFF9212359EE600
4B8F600000008F50
003F600000000AB0
002F6000000007D0
001F6000000008A0
000F700000000C60
000E700000004F10
000D80000000C900
000C80000007E200
000B9000003E7000
0009900002DC0000
0008A0001CE20000
0007A000BF400000
0006B00AF6000000
0005C09F90000000
0003A7F900000000
00003F9000000000
0000790000000000
ENDCHAR
STARTCHAR Emacron
ENCODING 274
SWIDTH 474 0
DWIDTH 13 0
BBX 13 24 0 0
BITMAP
00013579ABA000
1DFFFFEDCB9000
03321000000000
00000000025100
0B700038DE7000
0ED04BFE710000
0BFBFE71000000
09FE8100000000
07F10000000000
05F00000000000
04F10000011000
03F200005E3000
02F3003CE50000
01F42AF9100000
01FBFA20000000
00FF5000000000
00FB0000000000
00FB0000003CA0
00FB000008F910
00FB0003CE4000
00FB018FA10000
00FD8ED5000000
00FFF810000000
00882000000000
ENDCHAR
STARTCHAR emacron
ENCODING 275
SWIDTH 461 0
DWIDTH 13 0
BBX 14 21 -1 0
BITMAP
000002468ABC50
006EFFFFECBA50
00143210000000
00000000000000
00000000000000
00000000000000
000003ACA30000
00003EFBEF5000
0000DF400EE000
0006F7005FC000
000DD019FA1000
004FB8ED400000
00BFFE70000000
06FF9100000040
2FFF10000008F3
028E0000004FC0
007D000001DE20
006D00000BE400
004E1001BE4000
000EA68EC20000
0003DFD6000000
ENDCHAR
STARTCHAR Ebreve
ENCODING 276
SWIDTH 474 0
DWIDTH 13 0
BBX 12 26 1 0
BITMAP
002200019100
008D100AF100
001CD8BF8000
0001CFF80000
000003200000
000000002510
B700038DE700
ED04BFE71000
BFBFE7100000
9FE810000000
7F1000000000
5F0000000000
4F1000001100
3F200005E300
2F3003CE5000
1F42AF910000
1FBFA2000000
0FF500000000
0FB000000000
0FB0000003CA
0FB000008F91
0FB0003CE400
0FB018FA1000
0FD8ED500000
0FFF81000000
088200000000
ENDCHAR
STARTCHAR ebreve
ENCODING 277
SWIDTH 461 0
DWIDTH 13 0
BBX 14 21 -1 0
BITMAP
00002200019200
00008D200AF200
00001CD8BF9000
000001CFF80000
00000003200000
00000000000000
000003ACA30000
00003EFBEF5000
0000DF400EE000
0006F7005FC000
000DD019FA1000
004FB8ED400000
00BFFE70000000
06FF9100000040
2FFF10000008F3
028E0000004FC0
007D000001DE20
006D00000BE400
004E1001BE4000
000EA68EC20000
0003DFD6000000
ENDCHAR
STARTCHAR Edotaccent
ENCODING 278
SWIDTH 474 0
DWIDTH 13 0
BBX 12 22 1 0
BITMAP
0005F7000000
0003A2002510
B700038DE700
ED04BFE71000
BFBFE7100000
9FE810000000
7F1000000000
5F0000000000
4F1000001100
3F200005E300
2F3003CE5000
1F42AF910000
1FBFA2000000
0FF500000000
0FB000000000
0FB0000003CA
0FB000008F91
0FB0003CE400
0FB018FA1000
0FD8ED500000
0FFF81000000
088200000000
ENDCHAR
STARTCHAR edotaccent
ENCODING 279
SWIDTH 461 0
DWIDTH 13 0
BBX 14 17 -1 0
BITMAP
0000005F800000
0000003A200000
000003ACA30000
00003EFBEF5000
0000DF400EE000
0006F7005FC000
000DD019FA1000
004FB8ED400000
00BFFE70000000
06FF9100000040
2FFF10000008F3
028E0000004FC0
007D000001DE20
006D00000BE400
004E1001BE4000
000EA68EC20000
0003DFD6000000
ENDCHAR
STARTCHAR Eogonek
ENCODING 280
SWIDTH 474 0
DWIDTH 13 0
BBX 12 24 1 -3
BITMAP
000000002510
B700038DE700
ED04BFE71000
BFBFE7100000
9FE810000000
7F1000000000
5F0000000000
4F1000001100
3F200005E300
2F3003CE5000
1F42AF910000
1FBFA2000000
0FF500000000
0FB000000000
0FB0000003CA
0FB000008F91
0FB0003CD400
0FB017FC1000
0FD8EFD10000
0FFFAF600000
08823F300000
00001F7017B2
00000AFDFFD1
0000007AA610
ENDCHAR
STARTCHAR eogonek
ENCODING 281
SWIDTH 461 0
DWIDTH 13 0
BBX 14 21 -1 -6
BITMAP
000003ACA30000
00003EFBEF5000
0000DF400EE000
0006F7005FC000
000DD019FA1000
004FB8ED400000
00BFFE70000000
06FF9100000040
2FFF10000008F3
028E0000004FC0
007D000001DE20
006D00000BE400
004E1001BE4000
000EA68EC20000
0003DFFB000000
00000DC0000000
00004F50000000
00005F10000000
00003F5028B100
00000BFEFFC000
0000017A950000
ENDCHAR
STARTCHAR Ecaron
ENCODING 282
SWIDTH 474 0
DWIDTH 13 0
BBX 12 26 1 0
BITMAP
240000000000
2E300001BB00
05D1001BA100
009C01C80000
000CBD600000
0002A4002510
B700038DE700
ED04BFE71000
BFBFE7100000
9FE810000000
7F1000000000
5F0000000000
4F1000001100
3F200005E300
2F3003CE5000
1F42AF910000
1FBFA2000000
0FF500000000
0FB000000000
0FB0000003CA
0FB000008F91
0FB0003CE400
0FB018FA1000
0FD8ED500000
0FFF81000000
088200000000
ENDCHAR
STARTCHAR ecaron
ENCODING 283
SWIDTH 461 0
DWIDTH 13 0
BBX 14 23 -1 0
BITMAP
00150000000000
000C7000007E10
0002E40008D300
00005E209B1000
000009DC900000
00000096000000
00000000000000
00000000000000
000003ACA30000
00003EFBEF5000
0000DF400EE000
0006F7005FC000
000DD019FA1000
004FB8ED400000
00BFFE70000000
06FF9100000040
2FFF10000008F3
028E0000004FC0
007D000001DE20
006D00000BE400
004E1001BE4000
000EA68EC20000
0003DFD6000000
ENDCHAR
STARTCHAR Gcircumflex
ENCODING 284
SWIDTH 591 0
DWIDTH 17 0
BBX 16 30 0 -3
BITMAP
0000000100000000
0000003F60000000
000000BEF4000000
000004F36E300000
00000C9009D10000
00005E1000BC1000
0000D700001DD100
0006D0000003B000
0003300001310000
00000002AFF90000
0000004EE9400000
000004E700000000
00001E9000000000
0000BC1000000000
0005F30000000000
000D900000000133
005E1000016AEFFC
00D800003DDDEFC0
04F2000000009F60
0AB000000002FF30
0E600000000AFF00
3F300000007FFE00
5F00000005FDBD00
6F1000007FC19C00
3FC4226CFA10AD00
07FFFFFD5000BD00
0028A9610000BE00
000000000000AF00
0000000000008F20
0000000000003D20
ENDCHAR
STARTCHAR gcircumflex
ENCODING 285
SWIDTH 437 0
DWIDTH 12 0
BBX 12 39 0 -12
BITMAP
000001000000
00005F400000
0000DDE30000
0006E18D2000
001D700AC100
007D0001DB00
01E500002EC0
08B000000590
042000000000
000000000000
000000000000
000000144100
000005EFFD20
00007F94EF50
0004F602FF70
001D8008EF80
008D101E8F90
01F5007E3FA0
08D000D92FC0
0D8006F31FD0
3F300DB00FE0
6F007F400EF0
8D02EB000DF1
6F9DE2000CF2
1EFF40000BF3
027200000BF4
000000000BF5
000000000BF4
000000000BF3
000000000BF1
000000000DD0
000000000F90
000000004F50
000000008E10
00000002E800
0000000BE200
000001BF7000
0036AEF90000
005ADC500000
ENDCHAR
STARTCHAR Gbreve
ENCODING 286
SWIDTH 591 0
DWIDTH 17 0
BBX 16 26 0 -3
BITMAP
0000014000074000
000004F4006F6000
0000008F99FC1000
00000009FFB10000
0000000024310000
00000002AFF90000
0000004EE9400000
000004E700000000
00001E9000000000
0000BC1000000000
0005F30000000000
000D900000000133
005E1000016AEFFC
00D800003DDDEFC0
04F2000000009F60
0AB000000002FF30
0E600000000AFF00
3F300000007FFE00
5F00000005FDBD00
6F1000007FC19C00
3FC4226CFA10AD00
07FFFFFD5000BD00
0028A9610000BE00
000000000000AF00
0000000000008F20
0000000000003D20
ENDCHAR
STARTCHAR gbreve
ENCODING 287
SWIDTH 437 0
DWIDTH 12 0
BBX 12 35 0 -12
BITMAP
000410003800
000D9002DC00
0003FB8EF400
00004EFE4000
000001410000
000000000000
000000000000
000000144100
000005EFFD20
00007F94EF50
0004F602FF70
001D8008EF80
008D101E8F90
01F5007E3FA0
08D000D92FC0
0D8006F31FD0
3F300DB00FE0
6F007F400EF0
8D02EB000DF1
6F9DE2000CF2
1EFF40000BF3
027200000BF4
000000000BF5
000000000BF4
000000000BF3
000000000BF1
000000000DD0
000000000F90
000000004F50
000000008E10
00000002E800
0000000BE200
000001BF7000
0036AEF90000
005ADC500000
ENDCHAR
STARTCHAR Gdotaccent
ENCODING 288
SWIDTH 591 0
DWIDTH 17 0
BBX 16 26 1 -3
BITMAP
0000003E90000000
0000002A30000000
0000000000000000
0000000000000000
0000000002200000
00000006EFF20000
000000AFC6100000
00000AC300000000
00007E2000000000
0003F60000000000
000CA00000000000
005F200000000231
00D80000038CFFF5
05F100009DDDFF50
0CA000000001EE00
2F4000000009FA00
7E000000003FF800
AA00000001DFF700
D80000001BF9F600
D9000002CF72F500
BF73239EE402F600
2CFFFFFA2003F600
0059A8300003F700
000000000002F800
000000000000FA00
000000000000A800
ENDCHAR
STARTCHAR gdotaccent
ENCODING 289
SWIDTH 437 0
DWIDTH 12 0
BBX 12 31 0 -12
BITMAP
0000004F8000
0000003A3000
000000000000
000000144100
000005EFFD20
00007F94EF50
0004F602FF70
001D8008EF80
008D101E8F90
01F5007E3FA0
08D000D92FC0
0D8006F31FD0
3F300DB00FE0
6F007F400EF0
8D02EB000DF1
6F9DE2000CF2
1EFF40000BF3
027200000BF4
000000000BF5
000000000BF4
000000000BF3
000000000BF1
000000000DD0
000000000F90
000000004F50
000000008E10
00000002E800
0000000BE200
000001BF7000
0036AEF90000
005ADC500000
ENDCHAR
STARTCHAR Gcommaaccent
ENCODING 290
SWIDTH 591 0
DWIDTH 17 0
BBX 16 28 0 -9
BITMAP
0000000001310000
00000002AFF90000
0000004EE9400000
000004E700000000
00001E9000000000
0000BC1000000000
0005F30000000000
000D900000000133
005E1000016AEFFC
00D800003DDDEFC0
04F2000000009F60
0AB000000002FF30
0E600000000AFF00
3F300000007FFE00
5F00000005FDBD00
6F1000007FC19C00
3FC4226CFA10AD00
07FFFFFD5000BD00
0028A9610000BE00
000000000000AF00
0000000000008F20
0000000130003D20
0000000CE0000000
0000000CF2000000
00000009F1000000
0000000AD0000000
0000000A90000000
0000000A50000000
ENDCHAR
STARTCHAR Hcircumflex
ENCODING 292
SWIDTH 424 0
DWIDTH 12 0
BBX 11 29 0 0
BITMAP
0000DA000000
0007EE900000
001E72E60000
008D004F4000
01E50007E300
09B00000AE40
2F3000001B30
150000000000
000000000000
000000000000
071000018100
2F400002F700
2F500000D900
1F500000AA00
1F6000008C00
0F6000007D00
0F7000008E00
0E700000BF10
0E800004FF20
0D90006ECF40
0DB16CE60F50
0CFEF8100E60
0CFC20000C80
0BD100000B90
0AA000000AB0
0A90000009C0
09A0000008D0
09C0000006E0
08A0000003C0
ENDCHAR
STARTCHAR hcircumflex
ENCODING 293
SWIDTH 466 0
DWIDTH 13 0
BBX 14 27 0 -1
BITMAP
0000000CC00000
0000005FEA0000
000000D81D8000
000006E103F600
00001E60006F40
08207C000009E5
1F51E4000000A4
1F615000000000
1F600000000000
1F600000000000
1F700000000000
1F700000000000
1F7000049A9200
1F8000AFFEFD00
1F8007FF707F20
1F802FF6006F20
1F909FA0006F30
1F91EE20006F30
1F96F800005F40
1FAAE100005F40
1FBF8000004F40
1FFF1000004F50
1FF90000004F50
1FF20000003F60
1F900000003F60
08100000002F60
00000000000300
ENDCHAR
STARTCHAR Hbar
ENCODING 294
SWIDTH 424 0
DWIDTH 12 0
BBX 11 19 0 0
BITMAP
071000018100
2F400002F700
2F500000D900
2F500000AA00
1F5000019C10
2FA8ACEFFF80
6FDBA876BF10
0E700000BF10
0E800004FF20
0D90006ECF40
0DB16CE60F50
0CFEF8100E60
0CFC20000C80
0BD100000B90
0BA000000AB0
0A90000009C0
09A0000008D0
09C0000006E0
08A0000003C0
ENDCHAR
STARTCHAR hbar
ENCODING 295
SWIDTH 466 0
DWIDTH 13 0
BBX 15 22 -2 -1
BITMAP
0008200000000000
001F500000000000
001F600000000000
001F600000000000
001F600000000000
001F700123100000
257FDCEFFF500000
7DCFC87658AA9200
001F8000AFFEFD00
001F8007FF707F20
001F802FF6006F20
001F909FA0006F30
001F91EE20006F30
001F96F800005F40
001FAAE100005F40
001FBF8000004F40
001FFF1000004F50
001FF90000004F50
001FF20000003F60
001F900000003F60
0008100000002F60
0000000000000300
ENDCHAR
STARTCHAR Itilde
ENCODING 296
SWIDTH 153 0
DWIDTH 4 0
BBX 11 28 -3 0
BITMAP
06DEC4000740
7F85ED008F80
CC007F65FD10
73000BFFD200
000001661000
000000000000
000000000000
00006B000000
00006F000000
00004F100000
00003F200000
00003F300000
00002F400000
00002F400000
00001F500000
00001F500000
00001F600000
00000F600000
00000F600000
00000F700000
00000F700000
00000E700000
00000E700000
00000E700000
00000D700000
00000D700000
00000C800000
000008500000
ENDCHAR
STARTCHAR itilde
ENCODING 297
SWIDTH 132 0
DWIDTH 4 0
BBX 12 23 -4 -1
BITMAP
02AEEA100380
1DD59F601EF1
4F600DD3BF80
280003FFF800
000000373000
000000000000
00000C600000
00000F800000
00001F800000
00001F800000
00001F800000
00001F800000
00001F800000
00001F800000
00001F700000
00000F700000
00000F700000
00000E700000
00000E700000
00000D700000
00000D800000
00000D800000
000002100000
ENDCHAR
STARTCHAR imacron
ENCODING 299
SWIDTH 132 0
DWIDTH 4 0
BBX 11 22 -4 -1
BITMAP
00013579ABA0
1DFFFFEDCB90
033210000000
000000000000
000000000000
00000C600000
00000F800000
00001F800000
00001F800000
00001F800000
00001F800000
00001F800000
00001F800000
00001F700000
00000F700000
00000F700000
00000E700000
00000E700000
00000D700000
00000D800000
00000D800000
000002100000
ENDCHAR
STARTCHAR Ibreve
ENCODING 300
SWIDTH 153 0
DWIDTH 4 0
BBX 7 27 -1 0
BITMAP
41000380
D9002EB0
3FB8EF30
05EFE400
00141000
00000000
006B0000
006F0000
004F1000
003F2000
003F3000
002F4000
002F4000
001F5000
001F5000
001F6000
000F6000
000F6000
000F7000
000F7000
000E7000
000E7000
000E7000
000D7000
000D7000
000C8000
00085000
ENDCHAR
STARTCHAR ibreve
ENCODING 301
SWIDTH 132 0
DWIDTH 4 0
BBX 8 23 -2 -1
BITMAP
1A1000B9
1DB109F6
03EEEF90
003BC600
00000000
00000000
000C6000
000F8000
001F8000
001F8000
001F8000
001F8000
001F8000
001F8000
001F7000
000F7000
000F7000
000E7000
000E7000
000D7000
000D8000
000D8000
00021000
ENDCHAR
STARTCHAR Iogonek
ENCODING 302
SWIDTH 153 0
DWIDTH 4 0
BBX 7 27 0 -6
BITMAP
06B00000
06F00000
04F10000
03F20000
03F30000
02F40000
02F40000
01F50000
01F50000
01F60000
00F60000
00F60000
00F70000
00F70000
00E70000
00E70000
00E70000
00E70000
00D70000
01EA0000
0CE60000
5F500000
9D000000
AB000000
7E427CB0
1DFFFE50
01675100
ENDCHAR
STARTCHAR iogonek
ENCODING 303
SWIDTH 132 0
DWIDTH 4 0
BBX 7 28 -1 -7
BITMAP
03800000
04D00000
00000000
00000000
00000000
00C60000
00F80000
01F80000
01F80000
01F80000
01F80000
01F80000
01F80000
01F70000
00F70000
00F70000
00E70000
00E70000
00D70000
00D80000
01EA0000
0CE40000
6F500000
AD000000
BB000000
7E438EB0
1CFFFE40
00564000
ENDCHAR
STARTCHAR Idotaccent
ENCODING 304
SWIDTH 153 0
DWIDTH 4 0
BBX 3 26 1 0
BITMAP
0100
9F30
7900
0000
0000
A700
AA00
9C00
8D00
7E00
7F00
6F00
6F00
5F10
5F10
5F20
4F20
4F20
4F20
4F20
4F30
3F30
3F30
2F30
2F30
0B20
ENDCHAR
STARTCHAR dotlessi
ENCODING 305
SWIDTH 132 0
DWIDTH 4 0
BBX 3 17 0 -1
BITMAP
0C60
0F80
1F80
1F80
1F80
1F80
1F80
1F80
1F70
0F70
0F70
0E70
0E70
0D70
0D80
0D80
0210
ENDCHAR
STARTCHAR Jcircumflex
ENCODING 308
SWIDTH 371 0
DWIDTH 10 0
BBX 12 30 0 -2
BITMAP
000000100000
000008E20000
00002FDD1000
0000AC0BB000
0003F301D900
000BA0003E70
004E200005F8
00C800000076
0051004A0000
0000005D0000
0000005F1000
0000004F3000
0000003F5000
0000001F7000
0000000EA000
0000000CC000
0000000AE000
00000008F000
00000006F200
00000004F400
00000003F500
00000001F600
00000000F600
10000000E700
81000000D700
78000000D600
1E300000E500
07D20003F200
008E746E9000
00039BA60000
ENDCHAR
STARTCHAR jcircumflex
ENCODING 309
SWIDTH 112 0
DWIDTH 3 0
BBX 12 36 -5 -10
BITMAP
00000DB00000
00007EE90000
0001E72E7000
0008D004F500
001E50007E30
009B00000AE4
02F3000001B3
015000000000
000000000000
000000000000
000000000000
000000500000
000003F30000
000003F30000
000003F30000
000003F30000
000003F30000
000002F40000
000002F50000
000001F60000
000000F70000
000000E80000
000000DA0000
000000CB0000
000000AC0000
000000AC0000
0000009D0000
0000008E0000
0000007E0000
0000008E0000
000000AC0000
720000D90000
9D2003F50000
1AE31CE00000
006EFF600000
000155000000
ENDCHAR
STARTCHAR Kcommaaccent
ENCODING 310
SWIDTH 524 0
DWIDTH 15 0
BBX 15 28 0 -9
BITMAP
2C20000000000000
1F70000002900000
0C9000002E700000
0AA00001DC000000
08C0000AF3000000
06E0005F70000000
05F101DB00000000
04F208E200000000
02F43F5000000000
01F6CB0000000000
00FDF20000000000
00DFA00000000000
00CF600000000000
00BF943221111110
009FFFFFFFFFFF70
008E222222222200
005F200000000000
002F300000000000
0009200000000000
0000000000000000
0000000000000000
0000001400000000
000000BF10000000
000000BF30000000
0000008F20000000
0000009E00000000
0000009A00000000
000000A500000000
ENDCHAR
STARTCHAR kcommaaccent
ENCODING 311
SWIDTH 428 0
DWIDTH 12 0
BBX 12 31 0 -9
BITMAP
014000000000
08E000000000
08F100000000
09F200000000
09F200000000
0AF100000061
0BF0000009F4
0BF000005FC0
0CE00001EF50
0CD00009FB00
0DC0005FE200
0DB001EF7000
0EA00AFB0000
0EA07FD10000
0FA5FE200000
0FEFD2000000
1FFC10000000
1FFD30000000
2FCEFA500000
3F605BFEA740
3F400028EFF1
4F2000000580
3B0000000000
000000000000
000003200000
00002FA00000
00002FD00000
00000EB00000
00000E900000
00000F500000
00000E100000
ENDCHAR
STARTCHAR Lacute
ENCODING 313
SWIDTH 537 0
DWIDTH 15 0
BBX 15 21 0 0
BITMAP
0000000012000000
00000001CB000000
0000001CF5000000
1840007F70000000
3FB0003500000000
2FC0000000000000
1FC0000000000000
0FD0000000000000
0ED0000000000000
0EE0000000000000
0DE0000000000000
0DF0000000000000
0CF0000000000000
0CF1000000000000
0CF1000000000330
0BF200000004BFB0
0BF2000005CFA610
0BF30006DFA20000
0AF328EFB3000000
0AFDFFB300000000
08ED830000000000
ENDCHAR
STARTCHAR lacute
ENCODING 314
SWIDTH 137 0
DWIDTH 4 0
BBX 4 32 0 0
BITMAP
0021
02D8
2EE3
AE40
4300
0000
0000
0000
3B00
3F10
2F30
0F40
0D50
0C60
0B70
0A80
0990
09A0
08B0
07B0
07C0
07C0
06D0
06D0
06D0
06E0
07E0
07F0
08F0
09F1
0AF1
0260
ENDCHAR
STARTCHAR Lcommaaccent
ENCODING 315
SWIDTH 537 0
DWIDTH 15 0
BBX 15 27 0 -9
BITMAP
1840000000000000
3FB0000000000000
2FC0000000000000
1FC0000000000000
0FD0000000000000
0ED0000000000000
0EE0000000000000
0DE0000000000000
0DF0000000000000
0CF0000000000000
0CF1000000000000
0CF1000000000330
0BF200000004BFB0
0BF2000005CFA610
0BF30006DFA20000
0AF328EFB3000000
0AFDFFB300000000
08ED830000000000
0000000000000000
0000000000000000
0000000400000000
0000008F30000000
0000009F60000000
0000006F40000000
0000006F10000000
0000007D00000000
0000007800000000
ENDCHAR
STARTCHAR lcommaaccent
ENCODING 316
SWIDTH 137 0
DWIDTH 4 0
BBX 4 33 0 -9
BITMAP
3B00
3F10
2F30
0F40
0D50
0C60
0B70
0A80
0990
09A0
08B0
07B0
07C0
07C0
06D0
06D0
06D0
06E0
07E0
07F0
08F0
09F1
0AF1
0260
0000
0000
0320
2FA0
2FC0
0EB0
0F80
0F50
1D10
ENDCHAR
STARTCHAR Lcaron
ENCODING 317
SWIDTH 537 0
DWIDTH 15 0
BBX 15 26 0 0
BITMAP
0240000000000000
02E300001BB00000
005D1001BA100000
0009C01C80000000
0000CBD600000000
00002A4000000000
0000000000000000
0000000000000000
1840000000000000
3FB0000000000000
2FC0000000000000
1FC0000000000000
0FD0000000000000
0ED0000000000000
0EE0000000000000
0DE0000000000000
0DF0000000000000
0CF0000000000000
0CF1000000000000
0CF1000000000330
0BF200000004BFB0
0BF2000005CFA610
0BF30006DFA20000
0AF328EFB3000000
0AFDFFB300000000
08ED830000000000
ENDCHAR
STARTCHAR Ldot
ENCODING 319
SWIDTH 537 0
DWIDTH 15 0
BBX 15 18 0 0
BITMAP
1840000000000000
3FB0000000000000
2FC0000000000000
1FC0000000000000
0FD0000000000000
0ED0000000000000
0EE0000000000000
0DE0000000000000
0DF0000000000000
0CF0000000000000
0CF1003D70000000
0CF1004C40000330
0BF200000004BFB0
0BF2000005CFA610
0BF30006DFA20000
0AF328EFB3000000
0AFDFFB300000000
08ED830000000000
ENDCHAR
STARTCHAR ldot
ENCODING 320
SWIDTH 267 0
DWIDTH 8 0
BBX 7 24 0 0
BITMAP
3B000000
3F100000
2F300000
0F400000
0D500000
0C600000
0B700000
0A800000
09900000
09A00000
08B00000
07B00000
07C00000
07C00000
06D00000
06D00000
06D05E60
06E05C30
07E00000
07F00000
08F00000
09F10000
0AF10000
02600000
ENDCHAR
STARTCHAR Lslash
ENCODING 321
SWIDTH 537 0
DWIDTH 15 0
BBX 16 18 -1 0
BITMAP
0184000000000000
03FB000000000000
02FC000000000000
01FC000000000000
00FD000000000000
00ED000000000000
00EE000000000000
00DE000000000000
00DF000168100000
00DF05BFFF300000
00CFEFEA61000000
AEFF951000000033
55CF100000004BFB
00BF2000005CFA61
00BF30006DFA2000
00AF328EFB300000
00AFDFFB30000000
008ED83000000000
ENDCHAR
STARTCHAR lslash
ENCODING 322
SWIDTH 137 0
DWIDTH 4 0
BBX 12 24 -4 0
BITMAP
00003B000000
00003F100000
00002F200000
00000F400000
00000D500000
00000C600000
00000B700000
00000A800000
000009900000
000009A00000
000008A00000
000007B00000
000007C00000
000007C00000
000006D00010
000006E5BEF1
00002AFFFC70
058CFFF61000
1CC957F00000
000007F00000
000008F00000
000009F10000
00000AF10000
000002600000
ENDCHAR
STARTCHAR Nacute
ENCODING 323
SWIDTH 541 0
DWIDTH 15 0
BBX 15 24 0 0
BITMAP
0000000300000000
0000008F10000000
000007FA00041000
00002FB1000F8000
00000600000CD000
000000000009F000
2D4000000007F100
2FF400000006F200
0FFE20000005F200
0DFFC0000004F200
0CE8F8000003F300
0AE0AF400003F300
08E01CE20002F400
06F002EB0002F400
05F2004F8002F500
03F30007F402F500
01F50000AE12F500
00F700001DB3F600
00D9000002EBF600
00BC0000005FF800
009D00000008FD00
008E00000001FF10
007F000000008700
004C000000000000
ENDCHAR
STARTCHAR nacute
ENCODING 324
SWIDTH 483 0
DWIDTH 14 0
BBX 13 22 0 0
BITMAP
00000002100000
0000003E600000
000003EE200000
00000BE3000000
00000520000000
01000000130000
2F100008EF8000
2F40009FEEF200
1F6005FC11D800
0F800CF3008C00
0EA02FA0007F00
0DC07F40006F20
0CD0AE00006F40
0BF0E900005F50
0AF4F400004F50
09F9E000003F60
08FEB000002F70
07FF7000001F70
06FF4000000F70
04FF1000000E70
03FD0000000D70
02E70000000410
ENDCHAR
STARTCHAR Ncommaaccent
ENCODING 325
SWIDTH 541 0
DWIDTH 15 0
BBX 15 31 0 -9
BITMAP
0000000000041000
00000000000F8000
00000000000CD000
000000000009F000
2D4000000007F100
2FF400000006F200
0FFE20000005F200
0DFFC0000004F200
0CE8F8000003F300
0AE0AF400003F300
08E01CE20002F400
06F002EB0002F400
05F2004F8002F500
03F30007F402F500
01F50000AE12F500
00F700001DB3F600
00D9000002EBF600
00BC0000005FF800
009D00000008FD00
008E00000001FF10
007F000000008700
004C000000000000
0000000000000000
0000000000000000
0000000400000000
0000008F40000000
0000008F60000000
0000005F50000000
0000006F20000000
0000006D00000000
0000007800000000
ENDCHAR
STARTCHAR ncommaaccent
ENCODING 326
SWIDTH 483 0
DWIDTH 14 0
BBX 13 26 0 -9
BITMAP
01000000130000
2F100008EF8000
2F40009FEEF200
1F6005FC11D800
0F800CF3008C00
0EA02FA0007F00
0DC07F40006F20
0CD0AE00006F40
0BF0E900005F50
0AF4F400004F50
09F9E000003F60
08FEB000002F70
07FF7000001F70
06FF4000000F70
04FF1000000E70
03FD0000000D70
02E70000000410
00000000000000
00000000000000
00000041000000
000005F7000000
000005F9000000
000002F8000000
000003F5000000
000003F1000000
000004B0000000
ENDCHAR
STARTCHAR Ncaron
ENCODING 327
SWIDTH 541 0
DWIDTH 15 0
BBX 15 26 0 0
BITMAP
0024000000000000
001D400000AC0000
0004E2001BB10000
00008C11C9000000
00000BBD60041000
000002A4000F8000
00000000000CD000
000000000009F000
2D4000000007F100
2FF400000006F200
0FFE20000005F200
0DFFC0000004F200
0CE8F8000003F300
0AE0AF400003F300
08E01CE20002F400
06F002EB0002F400
05F2004F8002F500
03F30007F402F500
01F50000AE12F500
00F700001DB3F600
00D9000002EBF600
00BC0000005FF800
009D00000008FD00
008E00000001FF10
007F000000008700
004C000000000000
ENDCHAR
STARTCHAR ncaron
ENCODING 328
SWIDTH 483 0
DWIDTH 14 0
BBX 13 23 0 0
BITMAP
00510000000000
007B000003E400
000B90004E6000
0001E605D30000
00004EAC200000
00000691000000
01000000130000
2F100008EF8000
2F40009FEEF200
1F6005FC11D800
0F800CF3008C00
0EA02FA0007F00
0DC07F40006F20
0CD0AE00006F40
0BF0E900005F50
0AF4F400004F50
09F9E000003F60
08FEB000002F70
07FF7000001F70
06FF4000000F70
04FF1000000E70
03FD0000000D70
02E70000000410
ENDCHAR
STARTCHAR napostrophe
ENCODING 329
SWIDTH 483 0
DWIDTH 14 0
BBX 13 25 0 0
BITMAP
00014000000000
0009F300000000
0009F500000000
0006F400000000
0006F100000000
0007D000000000
00078000000000
00000000000000
01000000130000
2F100008EF8000
2F40009FEEF200
1F6005FC11D800
0F800CF3008C00
0EA02FA0007F00
0DC07F40006F20
0CD0AE00006F40
0BF0E900005F50
0AF4F400004F50
09F9E000003F60
08FEB000002F70
07FF7000001F70
06FF4000000F70
04FF1000000E70
03FD0000000D70
02E70000000410
ENDCHAR
STARTCHAR Omacron
ENCODING 332
SWIDTH 382 0
DWIDTH 11 0
BBX 12 23 0 0
BITMAP
000013579BB8
02EFFFFEDCB7
004321000000
000000000000
00002AC81000
0003EFFFC100
000DE505F900
007F2000BE00
00DB00006F20
04F600004F40
08F100003F50
0CC000003F50
1F8000004F40
3F5000006F30
5F2000008F10
7F000000BD00
8E000001FA00
8D000005F500
7E00000CE000
4F30005F6000
0EB104EC0000
07FEDFC10000
008ED8100000
ENDCHAR
STARTCHAR omacron
ENCODING 333
SWIDTH 266 0
DWIDTH 7 0
BBX 11 21 -2 0
BITMAP
00013579BB90
2DFFFFEDCB80
043210000000
000000000000
000000000000
000026200000
0002EFE30000
0006FBBC0000
0009B00C5000
000D6008B000
001F3006D000
003F2006E000
005F1006E000
006F1008E000
007F1009D000
007F100CB000
006F101F7000
005F107F2000
004F32EA0000
002FDED20000
0009E9100000
ENDCHAR
STARTCHAR Obreve
ENCODING 334
SWIDTH 382 0
DWIDTH 11 0
BBX 11 24 0 0
BITMAP
004100038000
00CA001DC000
003EB8DF4000
0004EFE40000
000014100000
00002AC81000
0003EFFFC100
000DE505F900
007F2000BE00
00DB00006F20
04F600004F40
08F100003F50
0CC000003F50
1F8000004F40
3F5000006F30
5F2000008F10
7F000000BD00
8E000001FA00
8D000005F500
7E00000CE000
4F30005F6000
0EB104EC0000
07FEDFC10000
008ED8100000
ENDCHAR
STARTCHAR obreve
ENCODING 335
SWIDTH 266 0
DWIDTH 7 0
BBX 8 21 0 0
BITMAP
14000065
3F4005F7
08F99FC1
008FFB10
00023000
00262000
02EFE300
06FBBC00
09B00C50
0D6008B0
1F3006D0
3F2006E0
5F1006E0
6F1008E0
7F1009D0
7F100CB0
6F101F70
5F107F20
4F32EA00
2FDED200
09E91000
ENDCHAR
STARTCHAR Ohungarumlaut
ENCODING 336
SWIDTH 382 0
DWIDTH 11 0
BBX 11 25 0 0
BITMAP
000000020000
0000005F3270
000004FD3ED0
00000ED3DF40
00000714E400
000000001000
00002AC81000
0003EFFFC100
000DE505F900
007F2000BE00
00DB00006F20
04F600004F40
08F100003F50
0CC000003F50
1F8000004F40
3F5000006F30
5F2000008F10
7F000000BD00
8E000001FA00
8D000005F500
7E00000CE000
4F30005F6000
0EB104EC0000
07FEDFC10000
008ED8100000
ENDCHAR
STARTCHAR ohungarumlaut
ENCODING 337
SWIDTH 266 0
DWIDTH 7 0
BBX 8 22 0 0
BITMAP
00011000
003E7180
02EE3CF2
0AE4BF70
0531F700
00001000
00262000
02EFE300
06FBBC00
09B00C50
0D6008B0
1F3006D0
3F2006E0
5F1006E0
6F1008E0
7F1009D0
7F100CB0
6F101F70
5F107F20
4F32EA00
2FDED200
09E91000
ENDCHAR
STARTCHAR OE
ENCODING 338
SWIDTH 732 0
DWIDTH 21 0
BBX 20 20 0 0
BITMAP
0000000035000016BD30
00002AC8CE104AFE8100
0003EFFFFF6BFE710000
000DE505FFFE71000000
007F2000BF8100000000
00DB00006F4000000000
04F600004F4000000000
08F100003F5000007600
0CC000003F60004CC100
1F8000004F702AF81000
3F5000006F98FA200000
5F2000008FFD30000000
7F000000BFF100000000
8E000001FFE000000048
8D000005FFE000001AF8
7E00000CDCE00004EC30
4F30005F7CE0019F8000
0EB104EC0CE16EC30000
07FEDFC10CFFE7000000
008ED8100BE920000000
ENDCHAR
STARTCHAR oe
ENCODING 339
SWIDTH 628 0
DWIDTH 18 0
BBX 18 16 0 0
BITMAP
002620000001100000
02EFE30003CFFB2000
06FBBC002EF87ED100
09B00C50BF5009F500
0D6008B3F9006FC100
1F3006DAF13AF80000
3F2006FFFCFB300000
5F1007FFFD50000000
6F1008FFA000000075
7F100AFF50000006F7
7F100CDF3000002ED1
6F101F9F300001CE30
5F106F3F30000BE400
4F32EA0D6002CE3000
2FDEC106FBCFA10000
09E910005A93000000
ENDCHAR
STARTCHAR Racute
ENCODING 340
SWIDTH 503 0
DWIDTH 14 0
BBX 13 27 1 0
BITMAP
00000000200000
0000001BC00000
000000BF600000
000006F8000000
20000250000000
ED000157630000
EE02AFFFFFD600
EE9FC73115DF40
DFD40000007F40
DE10000002E900
DC0000005E8000
DB000019E50000
D90006EA100000
D805DD50000000
DBCF9100000000
DFD40000000000
DF500000000000
DFFB3000000000
D9BFFA30000000
D603AFFA200000
D60003AFF92000
D60000029FFA30
D6000000018ED0
D6000000000120
D6000000000000
D6000000000000
84000000000000
ENDCHAR
STARTCHAR racute
ENCODING 341
SWIDTH 396 0
DWIDTH 11 0
BBX 11 21 0 0
BITMAP
000000120000
000001CB0000
00000CF50000
00006F700000
000025000000
000000000000
000000023200
3D1004DFFF50
3F403FF97510
0F60BF400000
0D81FA000000
0B94F5000000
08B6F2000000
06D7F0000000
04F8E0000000
01FBD0000000
00EEC0000000
00CFB0000000
00AFA0000000
007F80000000
003D50000000
ENDCHAR
STARTCHAR Rcommaaccent
ENCODING 342
SWIDTH 503 0
DWIDTH 14 0
BBX 13 32 1 -9
BITMAP
20000000000000
ED000157630000
EE02AFFFFFD600
EE9FC73115DF40
DFD40000007F40
DE10000002E900
DC0000005E8000
DB000019E50000
D90006EA100000
D805DD50000000
DBCF9100000000
DFD40000000000
DF500000000000
DFFB3000000000
D9BFFA30000000
D603AFFA200000
D60003AFF92000
D60000029FFA30
D6000000018ED0
D6000000000120
D6000000000000
D6000000000000
84000000000000
00000000000000
00000000000000
00000220000000
00001FB0000000
00001FE0000000
00000DC0000000
00000D90000000
00000E60000000
00000D20000000
ENDCHAR
STARTCHAR rcommaaccent
ENCODING 343
SWIDTH 396 0
DWIDTH 11 0
BBX 11 24 0 -9
BITMAP
000000023200
3D1004DFFF50
3F403FF97510
0F60BF400000
0D81FA000000
0B94F5000000
08B6F2000000
06D7F0000000
04F8E0000000
01FBD0000000
00EEC0000000
00CFB0000000
00AFA0000000
007F80000000
003D50000000
000000000000
000000000000
000004000000
00007F500000
00007F700000
00004F600000
00005F300000
00005E000000
000069000000
ENDCHAR
STARTCHAR Rcaron
ENCODING 344
SWIDTH 503 0
DWIDTH 14 0
BBX 13 29 1 0
BITMAP
00600000000000
00A9000005E200
001D60007E4000
0003E308C20000
00007DBA100000
00000880000000
20000000000000
ED000157630000
EE02AFFFFFD600
EE9FC73115DF40
DFD40000007F40
DE10000002E900
DC0000005E8000
DB000019E50000
D90006EA100000
D805DD50000000
DBCF9100000000
DFD40000000000
DF500000000000
DFFB3000000000
D9BFFA30000000
D603AFFA200000
D60003AFF92000
D60000029FFA30
D6000000018ED0
D6000000000120
D6000000000000
D6000000000000
84000000000000
ENDCHAR
STARTCHAR rcaron
ENCODING 345
SWIDTH 396 0
DWIDTH 11 0
BBX 11 23 0 0
BITMAP
060000000000
0A9000005E20
01D60007E400
003E308C2000
0007DBA10000
000088000000
000000000000
000000000000
000000023200
3D1004DFFF50
3F403FF97510
0F60BF400000
0D81FA000000
0B94F5000000
08B6F2000000
06D7F0000000
04F8E0000000
01FBD0000000
00EEC0000000
00CFB0000000
00AFA0000000
007F80000000
003D50000000
ENDCHAR
STARTCHAR Sacute
ENCODING 346
SWIDTH 541 0
DWIDTH 15 0
BBX 15 26 0 0
BITMAP
0000000011000000
00000002D8000000
0000002DF3000000
0000009F50000000
0000004300000000
0000000014510000
0000004BFFF80000
00001AE63AB20000
0003EA1000000000
003E900000000000
02EA000000000000
0BD1000000000000
3F50000000000000
8E00000000000000
AC00000000000000
7E10000000000000
1DC3000000000000
019ED97542100000
000047ACEFFEA400
000000000025AF30
0000000000005F60
000000000018FB10
0000000039EE6000
0000049DFC610000
0006EFD830000000
0004520000000000
ENDCHAR
STARTCHAR sacute
ENCODING 347
SWIDTH 366 0
DWIDTH 10 0
BBX 10 22 0 -1
BITMAP
0000002000
000004E500
00004FD100
0000DD2000
0000520000
0000000000
0000000100
00006CFF50
002CD65910
01DC100000
09F2000000
1E90000000
4F30000000
4F20028B91
2FDBDFFFF9
08EE9400AD
00000001DA
0000001CE2
000003DF40
00007FE400
001CFD3000
0009700000
ENDCHAR
STARTCHAR Scircumflex
ENCODING 348
SWIDTH 541 0
DWIDTH 15 0
BBX 15 30 0 0
BITMAP
0000000100000000
0000004F50000000
000000CEF4000000
000005F26E200000
00000D8009D10000
00006E1000CB0000
0001D600002EC000
0007C0000004A000
0004200000000000
0000000014510000
0000004BFFF80000
00001AE63AB20000
0003EA1000000000
003E900000000000
02EA000000000000
0BD1000000000000
3F50000000000000
8E00000000000000
AC00000000000000
7E10000000000000
1DC3000000000000
019ED97542100000
000047ACEFFEA400
000000000025AF30
0000000000005F60
000000000018FB10
0000000039EE6000
0000049DFC610000
0006EFD830000000
0004520000000000
ENDCHAR
STARTCHAR scircumflex
ENCODING 349
SWIDTH 366 0
DWIDTH 10 0
BBX 11 23 0 -1
BITMAP
0001DA000000
0007EE800000
001E62E60000
008D005F4000
02F40008E200
09B00000BE40
2F2000001B20
240000010000
00006CFF5000
002CD6591000
01DC10000000
09F200000000
1E9000000000
4F3000000000
4F20028B9100
2FDBDFFFF900
08EE9400AD00
00000001DA00
0000001CE200
000003DF4000
00007FE40000
001CFD300000
000970000000
ENDCHAR
STARTCHAR Scedilla
ENCODING 350
SWIDTH 541 0
DWIDTH 15 0
BBX 16 29 0 -8
BITMAP
0000000014510000
0000004BFFF80000
00001AE63AB20000
0003EA1000000000
003E900000000000
02EA000000000000
0BD1000000000000
3F50000000000000
8E00000000000000
AC00000000000000
7E10000000000000
1DC3000000000000
019ED97542100000
000047ACEFFEA400
000000000025AF30
0000000000005F60
000000000018FB10
0000000039EE6000
0000049DFE710000
0006EFD83B500000
000452000E700000
000000000F800000
000000000DFB3000
0000000005EFFA10
000000000004BFD0
0000000000000DF4
000000000015AFF5
000000000CFFFD70
0000000004652000
ENDCHAR
STARTCHAR scedilla
ENCODING 351
SWIDTH 366 0
DWIDTH 10 0
BBX 11 24 0 -9
BITMAP
000000010000
00006CFF5000
002CD6591000
01DC10000000
09F200000000
1E9000000000
4F3000000000
4F20028B9100
2FDBDFFFF900
08EE9400AD00
00000001DA00
0000001CE200
000003DF4000
00007FE40000
001CFD300000
0009F7000000
0000F6000000
0000EE700000
00008FFD5000
0000038EF900
00000002EF30
00000015EF50
00008CFFFC10
00008A973000
ENDCHAR
STARTCHAR Scaron
ENCODING 352
SWIDTH 541 0
DWIDTH 15 0
BBX 15 26 0 0
BITMAP
0006000000000000
000A8000006E2000
0001D50007D40000
00004E308C200000
000007DBA1000000
0000009714510000
0000004BFFF80000
00001AE63AB20000
0003EA1000000000
003E900000000000
02EA000000000000
0BD1000000000000
3F50000000000000
8E00000000000000
AC00000000000000
7E10000000000000
1DC3000000000000
019ED97542100000
000047ACEFFEA400
000000000025AF30
0000000000005F60
000000000018FB10
0000000039EE6000
0000049DFC610000
0006EFD830000000
0004520000000000
ENDCHAR
STARTCHAR scaron
ENCODING 353
SWIDTH 366 0
DWIDTH 10 0
BBX 10 23 0 -1
BITMAP
3400000000
2E300001BA
05D1001CA1
009B02C800
000CBD5000
0002A30000
0000000000
0000000100
00006CFF50
002CD65910
01DC100000
09F2000000
1E90000000
4F30000000
4F20028B91
2FDBDFFFF9
08EE9400AD
00000001DA
0000001CE2
000003DF40
00007FE400
001CFD3000
0009700000
ENDCHAR
STARTCHAR Tcommaaccent
ENCODING 354
SWIDTH 595 0
DWIDTH 17 0
BBX 20 29 0 -9
BITMAP
000000004D20134679B4
00000246CFEEFFFFDA50
28BDFFFEEFB654200000
8DCA73103F7000000000
000000000F7000000000
000000000E8000000000
000000000C9000000000
000000000BB000000000
0000000009C000000000
0000000008E000000000
0000000006F100000000
0000000005F300000000
0000000004F500000000
0000000002F700000000
0000000001F900000000
0000000000EB00000000
0000000000CD00000000
0000000000AE00000000
00000000007E00000000
00000000004F00000000
00000000000000000000
00000000000000000000
00000000000230000000
00000000000ED0000000
00000000000EF0000000
00000000000BE0000000
00000000000CB0000000
00000000000C70000000
00000000000C30000000
ENDCHAR
STARTCHAR tcommaaccent
ENCODING 355
SWIDTH 268 0
DWIDTH 8 0
BBX 9 31 -1 -9
BITMAP
0004100000
003F600000
003F500000
003F300000
004F200000
004F200000
004F203750
005FBEFF80
05DFFE8200
BFFF610000
CDBF100000
007F200000
006F300000
005F300000
005F400000
004F400000
003F500000
002F600000
001F600000
000F700000
000E700000
000E800000
0006300000
0000000000
0000310000
0004F80000
0004FA0000
0001F90000
0002F60000
0002F20000
0003C00000
ENDCHAR
STARTCHAR Tcaron
ENCODING 356
SWIDTH 595 0
DWIDTH 17 0
BBX 20 28 0 0
BITMAP
00000051000000000000
0000007B000004E40000
0000000B80004E500000
00000002E505D3000000
000000004EAC20000000
00000000069100000000
00000000000000000000
00000000000000000000
000000004D20134679B4
00000246CFEEFFFFDA50
28BDFFFEEFB654200000
8DCA73103F7000000000
000000000F7000000000
000000000E8000000000
000000000C9000000000
000000000BB000000000
0000000009C000000000
0000000008E000000000
0000000006F100000000
0000000005F300000000
0000000004F500000000
0000000002F700000000
0000000001F900000000
0000000000EB00000000
0000000000CD00000000
0000000000AE00000000
00000000007E00000000
00000000004F00000000
ENDCHAR
STARTCHAR Tbar
ENCODING 358
SWIDTH 595 0
DWIDTH 17 0
BBX 20 20 0 0
BITMAP
000000004D20134679B4
00000246CFEEFFFFDA50
28BDFFFEEFB654200000
8DCA73103F7000000000
000000000F7000000000
000000000D8000000000
000001245DDCDE700000
00006FFFEEEBA8400000
0000021009C000000000
0000000008E000000000
0000000006F100000000
0000000005F300000000
0000000004F500000000
0000000002F700000000
0000000001F900000000
0000000000EB00000000
0000000000CD00000000
0000000000AE00000000
00000000007E00000000
00000000004F00000000
ENDCHAR
STARTCHAR Utilde
ENCODING 360
SWIDTH 450 0
DWIDTH 13 0
BBX 13 28 0 -4
BITMAP
003BED80005600
02EC4BF304FD00
07F202FB3DF500
0470007FFE5000
00000004720000
00000000000000
00000000003100
1840000000D900
2F90000001FB00
2F90000004FA00
1F90000006FA00
1F90000009F900
0F9000000BF800
0F9000000EF700
0E9000002FF700
0E9000005FF600
0D9000008FF500
0D900000CAF600
0D900002F5D700
0B900008E1C800
09C0001E70A900
05F500BD109B00
01DFBED2007D00
0029A710006E00
00000000004F00
00000000003F10
00000000001E00
00000000000100
ENDCHAR
STARTCHAR utilde
ENCODING 361
SWIDTH 387 0
DWIDTH 11 0
BBX 11 21 0 -1
BITMAP
07DEC4001730
7F85EC009F70
DC008F66FD10
83000CFFC200
000001660000
000000000000
082000035000
1F500007F100
0F600007F100
0F600008F100
0F700008F000
0F800009F000
0E90000AF000
0D90000CF000
0DA0003FF000
0BB000AFF200
09D004FFF300
06F11DF5F500
01FADF60E800
007FE500BC00
000210003700
ENDCHAR
STARTCHAR Umacron
ENCODING 362
SWIDTH 450 0
DWIDTH 13 0
BBX 13 25 0 -4
BITMAP
00002468ABC300
09EFFFEDCBA300
02432000000000
00000000003100
1840000000D900
2F90000001FB00
2F90000004FA00
1F90000006FA00
1F90000009F900
0F9000000BF800
0F9000000EF700
0E9000002FF700
0E9000005FF600
0D9000008FF500
0D900000CAF600
0D900002F5D700
0B900008E1C800
09C0001E70A900
05F500BD109B00
01DFBED2007D00
0029A710006E00
00000000004F00
00000000003F10
00000000001E00
00000000000100
ENDCHAR
STARTCHAR umacron
ENCODING 363
SWIDTH 387 0
DWIDTH 11 0
BBX 11 22 0 -1
BITMAP
0002468ABC50
6EFFFFDCBA40
143210000000
000000000000
000000000000
000000000000
000000000000
082000035000
1F500007F100
0F600007F100
0F600008F100
0F700008F000
0F800009F000
0E90000AF000
0D90000CF000
0DA0003FF000
0BB000AFF200
09D004FFF300
06F11DF5F500
01FADF60E800
007FE500BC00
000210003700
ENDCHAR
STARTCHAR Ubreve
ENCODING 364
SWIDTH 450 0
DWIDTH 13 0
BBX 13 25 0 -4
BITMAP
00031000290000
000BB101CE0000
0002EC8DF60000
00003DFE603100
1840014100D900
2F90000001FB00
2F90000004FA00
1F90000006FA00
1F90000009F900
0F9000000BF800
0F9000000EF700
0E9000002FF700
0E9000005FF600
0D9000008FF500
0D900000CAF600
0D900002F5D700
0B900008E1C800
09C0001E70A900
05F500BD109B00
01DFBED2007D00
0029A710006E00
00000000004F00
00000000003F10
00000000001E00
00000000000100
ENDCHAR
STARTCHAR ubreve
ENCODING 365
SWIDTH 387 0
DWIDTH 11 0
BBX 10 22 0 -1
BITMAP
0022000191
008D100AF1
001CD8BF80
0001CFF800
0000032000
0000000000
0000000000
0820000350
1F500007F1
0F600007F1
0F600008F1
0F700008F0
0F800009F0
0E90000AF0
0D90000CF0
0DA0003FF0
0BB000AFF2
09D004FFF3
06F11DF5F5
01FADF60E8
007FE500BC
0002100037
ENDCHAR
STARTCHAR Uring
ENCODING 366
SWIDTH 450 0
DWIDTH 13 0
BBX 13 27 0 -4
BITMAP
00017BDC500000
000DE76CF20000
002F6003F50000
000EC32AF30000
0004BDDA400000
00000000003100
1840000000D900
2F90000001FB00
2F90000004FA00
1F90000006FA00
1F90000009F900
0F9000000BF800
0F9000000EF700
0E9000002FF700
0E9000005FF600
0D9000008FF500
0D900000CAF600
0D900002F5D700
0B900008E1C800
09C0001E70A900
05F500BD109B00
01DFBED2007D00
0029A710006E00
00000000004F00
00000000003F10
00000000001E00
00000000000100
ENDCHAR
STARTCHAR uring
ENCODING 367
SWIDTH 387 0
DWIDTH 11 0
BBX 10 20 0 -1
BITMAP
0005BDC800
008FA6AF70
00CC000CA0
008E526F80
001ADDB700
0820000350
1F500007F1
0F600007F1
0F600008F1
0F700008F0
0F800009F0
0E90000AF0
0D90000CF0
0DA0003FF0
0BB000AFF2
09D004FFF3
06F11DF5F5
01FADF60E8
007FE500BC
0002100037
ENDCHAR
STARTCHAR Uhungarumlaut
ENCODING 368
SWIDTH 450 0
DWIDTH 13 0
BBX 13 28 0 -4
BITMAP
00000110000000
00001BB0730000
0000BF68F50000
0006F77FB00000
000350CA000000
00000010000000
00000000003100
1840000000D900
2F90000001FB00
2F90000004FA00
1F90000006FA00
1F90000009F900
0F9000000BF800
0F9000000EF700
0E9000002FF700
0E9000005FF600
0D9000008FF500
0D900000CAF600
0D900002F5D700
0B900008E1C800
09C0001E70A900
05F500BD109B00
01DFBED2007D00
0029A710006E00
00000000004F00
00000000003F10
00000000001E00
00000000000100
ENDCHAR
STARTCHAR uhungarumlaut
ENCODING 369
SWIDTH 387 0
DWIDTH 11 0
BBX 10 21 0 -1
BITMAP
0000200000
0004E41800
004FD3DE00
00DD3DF500
00623F5000
0000010000
0820000350
1F500007F1
0F600007F1
0F600008F1
0F700008F0
0F800009F0
0E90000AF0
0D90000CF0
0DA0003FF0
0BB000AFF2
09D004FFF3
06F11DF5F5
01FADF60E8
007FE500BC
0002100037
ENDCHAR
STARTCHAR Uogonek
ENCODING 370
SWIDTH 450 0
DWIDTH 13 0
BBX 15 26 0 -8
BITMAP
0000000000310000
1840000000D90000
2F90000001FB0000
2F90000004FA0000
1F90000006FA0000
1F90000009F90000
0F9000000BF80000
0F9000000EF70000
0E9000002FF70000
0E9000005FF60000
0D9000008FF50000
0D900000CAF60000
0D900002F5D70000
0B900008E1C80000
09C0001E70A90000
05F500BD109B0000
01DFBED2007D0000
0029A710006E0000
0000000001AF0000
000000000CFF1000
000000007F5E0000
00000000CB010000
00000000E8000000
00000000CB005A50
000000005FEEFF40
0000000004AA8200
ENDCHAR
STARTCHAR uogonek
ENCODING 371
SWIDTH 387 0
DWIDTH 11 0
BBX 13 21 0 -7
BITMAP
08200003500000
1F500007F10000
0F600007F10000
0F600008F10000
0F700008F00000
0F800009F00000
0E90000AF00000
0D90000CF00000
0DA0003FF00000
0BB000AFF20000
09D004FFF30000
06F11DF5F50000
01FADF60E80000
007FE504EC0000
0002104FA70000
000000DC000000
000002F5000000
000003F3000000
000001F8149D30
0000008FFFFC10
00000004874000
ENDCHAR
STARTCHAR Wcircumflex
ENCODING 372
SWIDTH 878 0
DWIDTH 25 0
BBX 24 31 0 -1
BITMAP
000000000001000000000000
00000000002E700000000000
0000000000AEF50000000000
0000000003F35E3000000000
000000000B9008E200000000
000000005E2000BC10000000
00000000C700001DD1000000
00000005D0000003B1000000
000000033000000000000000
000000000000000000000083
0000000000000000000001F7
0000000000000000000004F3
0300000000006400000008E0
4E7000000002FE0000000BB0
3FC000000005FF4000000F70
0BF200000009DF9000004F30
04F70000000E5DD000007E00
00EB0000003F19F30000BB00
009F1000008B04F70000E700
004F500000D700DC0003F300
001FA00002F2007F2007E000
000CE00007D0002F700BB000
0008F4000C80000AD00E7000
0004F9002F400003F43F3000
0001FE007E000000BC7E0000
0000CF40C90000004FEB0000
00007F92F50000000BF90000
00002FD8F100000003F50000
00000CFFC000000000400000
000004FF5000000000000000
000000430000000000000000
ENDCHAR
STARTCHAR wcircumflex
ENCODING 373
SWIDTH 566 0
DWIDTH 16 0
BBX 15 27 0 0
BITMAP
0000000100000000
0000007E20000000
000002EDD1000000
000009C0BC000000
00002F401DA00000
0000AA0002E80000
0003F200005F9000
000B800000077000
0005100000000000
0000000000000000
0000000000000000
0000000000000000
0000002400000300
2D2000BF20000E50
2F8000EFB0000E80
0AE000FBF4000E80
04F502F6AD000E80
00EB03F62F700E80
008F25F508E10E80
003F76F401D90E90
000CD8F3005F3EA0
0006FDF2000BCEA0
0001FFF10002FFB0
0000AFF000008FC0
00004FE000001DD0
00000ED000000250
000006A000000000
ENDCHAR
STARTCHAR Ycircumflex
ENCODING 374
SWIDTH 483 0
DWIDTH 14 0
BBX 13 31 0 0
BITMAP
00000010000000
000008E2000000
00002FDC100000
0000AB0BB00000
0003F301D90000
000B90003F7000
004E100006F800
00C70000008600
00600000000000
00000000000280
000000000006D0
00000000000A90
00000000000E50
76000000004F10
5F300000009B00
0CD1000000E700
03FB000005F200
007F80000AD000
000AF5001F8000
0001CF406F3000
00001DF6CD0000
000002DFF70000
0000003FF20000
0000000FB00000
0000003F600000
0000007F100000
000000CB000000
000002F6000000
000007F1000000
00000AC0000000
00000A70000000
ENDCHAR
STARTCHAR ycircumflex
ENCODING 375
SWIDTH 363 0
DWIDTH 10 0
BBX 10 38 0 -11
BITMAP
0000100000
0005F40000
000DDE3000
006E18D200
01D700AC10
07D0001DB0
1E500002EC
8B00000059
4200000000
0000000000
0000000000
0000000000
0000000053
00000000A9
3A100000B9
4F900000C9
0BF30000D8
02FB0000E8
008F5000F8
000DD101F7
0004F902F7
00009F42F6
00001EE6F6
000006FFF6
000000BFF5
0000002FF4
00000008F3
00000005F2
00000006F1
00000007F0
00000008E0
00000009C0
0000000BB0
0000000CA0
0000000D90
0000000E70
0000000F60
0000000730
ENDCHAR
STARTCHAR Ydieresis
ENCODING 376
SWIDTH 483 0
DWIDTH 14 0
BBX 13 22 0 0
BITMAP
00000000000280
0000AC03C806D0
0000BA03D50A90
00000000000E50
76000000004F10
5F300000009B00
0CD1000000E700
03FB000005F200
007F80000AD000
000AF5001F8000
0001CF406F3000
00001DF6CD0000
000002DFF70000
0000003FF20000
0000000FB00000
0000003F600000
0000007F100000
000000CB000000
000002F6000000
000007F1000000
00000AC0000000
00000A70000000
ENDCHAR
STARTCHAR Zacute
ENCODING 377
SWIDTH 670 0
DWIDTH 19 0
BBX 19 26 0 0
BITMAP
00000000021000000000
000000002D8000000000
00000002DF3000000000
00000009F50000000000
00000004300000000000
00000000000000000000
01111111111110000000
0EFFFFFFFFFFFFF70000
0222222233468FF50000
000000000000AF800000
000000000007FB000000
00000000004FD1000000
0000000002EE30000000
000000000CF500000000
000000009F8000000000
00000005FB0000000000
0000003ED10000000000
000001DE300000000000
00000AF5000000000000
00007F80000000000000
0004FB00000000000000
002ED100000000000000
00CF3000000000000000
09F71111111112235600
4FFFFFFFFFFFFFFFFF10
2EEDCCBBBAA999876400
ENDCHAR
STARTCHAR zacute
ENCODING 378
SWIDTH 618 0
DWIDTH 17 0
BBX 18 22 0 -1
BITMAP
000000000020000000
000000000BC0000000
00000000BF70000000
00000005F800000000
000000025000000000
000000000000000000
000000000000000000
000000028DE0000000
000016CFEFF1000000
046AFFB53FD0000000
2EFC72009F60000000
01100001FE10000000
00000008F500000000
0000001EB000000000
0000008F2000000000
000001E90000000000
000006F20000000000
00000CB000000369B6
00002F80258CEFFFFB
00006FEEFFFEC96410
00009FEB8520000000
000021000000000000
ENDCHAR
STARTCHAR Zdotaccent
ENCODING 379
SWIDTH 670 0
DWIDTH 19 0
BBX 19 23 0 0
BITMAP
00000000010000000000
000000008F4000000000
00000000591000000000
01111111111110000000
0EFFFFFFFFFFFFF70000
0222222233468FF50000
000000000000AF800000
000000000007FB000000
00000000004FD1000000
0000000002EE30000000
000000000CF500000000
000000009F8000000000
00000005FB0000000000
0000003ED10000000000
000001DE300000000000
00000AF5000000000000
00007F80000000000000
0004FB00000000000000
002ED100000000000000
00CF3000000000000000
09F71111111112235600
4FFFFFFFFFFFFFFFFF10
2EEDCCBBBAA999876400
ENDCHAR
STARTCHAR zdotaccent
ENCODING 380
SWIDTH 618 0
DWIDTH 17 0
BBX 18 18 0 -1
BITMAP
00000003EA00000000
00000002A400000000
000000000000000000
000000028DE0000000
000016CFEFF1000000
046AFFB53FD0000000
2EFC72009F60000000
01100001FE10000000
00000008F500000000
0000001EB000000000
0000008F2000000000
000001E90000000000
000006F20000000000
00000CB000000369B6
00002F80258CEFFFFB
00006FEEFFFEC96410
00009FEB8520000000
000021000000000000
ENDCHAR
STARTCHAR Zcaron
ENCODING 381
SWIDTH 670 0
DWIDTH 19 0
BBX 19 27 0 0
BITMAP
00000420000000000000
000005D100002D700000
0000009B0003D7000000
0000000C803D50000000
00000002EAD300000000
000000004A2000000000
00000000000000000000
01111111111110000000
0EFFFFFFFFFFFFF70000
0222222233468FF50000
000000000000AF800000
000000000007FB000000
00000000004FD1000000
0000000002EE30000000
000000000CF500000000
000000009F8000000000
00000005FB0000000000
0000003ED10000000000
000001DE300000000000
00000AF5000000000000
00007F80000000000000
0004FB00000000000000
002ED100000000000000
00CF3000000000000000
09F71111111112235600
4FFFFFFFFFFFFFFFFF10
2EEDCCBBBAA999876400
ENDCHAR
STARTCHAR zcaron
ENCODING 382
SWIDTH 618 0
DWIDTH 17 0
BBX 18 22 0 -1
BITMAP
000420000000000000
0005D100002D600000
00009B0003E7000000
00001C804D50000000
000002EAD300000000
0000005A1000000000
000000000000000000
000000028DE0000000
000016CFEFF1000000
046AFFB53FD0000000
2EFC72009F60000000
01100001FE10000000
00000008F500000000
0000001EB000000000
0000008F2000000000
000001E90000000000
000006F20000000000
00000CB000000369B6
00002F80258CEFFFFB
00006FEEFFFEC96410
00009FEB8520000000
000021000000000000
ENDCHAR
STARTCHAR florin
ENCODING 402
SWIDTH 345 0
DWIDTH 10 0
BBX 11 33 -1 -8
BITMAP
00000BE70000
00006FFF5000
0000AF4AC000
0000EE02D000
0001FB003000
0003F9000000
0004F8000000
0005F6000000
0006F5000000
0006F4000000
0006F3001420
0006F218EF60
0005FBFFD700
001BFC720000
02EFF2000000
0272F3000000
0000F4000000
0000F5000000
0000F6000000
0000F7000000
0000F8000000
0000F9000000
0000FB000000
0000EC000000
0000ED000000
0000EE000000
0000EE000000
0000EF000000
0000DF000000
0000DF000000
49AAEC000000
3AEFE4000000
000210000000
ENDCHAR
STARTCHAR AEacute
ENCODING 508
SWIDTH 708 0
DWIDTH 20 0
BBX 20 27 0 0
BITMAP
00000000030000000000
00000000AD0000000000
0000000AF80000000000
0000004F900000000000
00000016000000000000
00000000000000000000
002E3000000000015500
005FB003E30016CFB300
007FF304F918EFB30000
008FF900FDEFB3000000
00AD6E00EFB300000000
00CB0E40CB0000000000
00DA09A0AB0000000000
00F804E19B0000003000
02F700E58C00002A9000
03F500BB7D0019D50000
05F4007F8E28E9100000
06F3003FEFFC30000000
08F2004FFF9000000000
09F127EFFF7000000010
0BFEFB69FF60000008F5
0CF91001FF600003DE50
0DA00000CF60007FA100
0F6000007F603CE50000
1F4000005FBBFA100000
3F3000005FFD50000000
14100000145000000000
ENDCHAR
STARTCHAR aeacute
ENCODING 509
SWIDTH 705 0
DWIDTH 20 0
BBX 20 21 0 0
BITMAP
00000000000300000000
00000000008F10000000
0000000008FA00000000
000000002FB100000000
00000000160000000000
0000001100017A810000
00001AFF503EFEFE3000
0000BFEFA0CF602ED000
0007FA0F96F8004FD000
002FD01F9CD107FB1000
00AF404FDFA7DE600000
02FB009FFFFF81000000
08F401EFFFB200000020
0EC008FFFF10000007F3
4F502FA7FD0000003FC0
9E00AF22FC000001DF30
C905F800EC00000AF500
E61ED100DD0001AE5000
CBDF4000BF946DD30000
8FF60000ACEFE7100000
18400000440200000000
ENDCHAR
STARTCHAR Oslashacute
ENCODING 510
SWIDTH 382 0
DWIDTH 11 0
BBX 11 28 0 -3
BITMAP
000000030000
0000006F3000
000006FC0000
00001EC10000
000006100000
000000028100
00002ACCD000
0003EFFFD100
000DE51FF900
007F206EBE00
00DB00A96F20
04F600E54F40
08F104E13F50
0CC009A03F50
1F800D604F40
3F503F106F30
5F208C008F10
7F00C700BD00
8E02F201FA00
8D06D005F500
7E0B800CE000
4F4F305F6000
0EEE04EC0000
06FEDFC10000
00FFD8100000
04E000000000
06A000000000
012000000000
ENDCHAR
STARTCHAR oslashacute
ENCODING 511
SWIDTH 266 0
DWIDTH 7 0
BBX 9 25 -1 -3
BITMAP
0000003000
00000AE000
0000AF8000
0004F90000
0001600000
0000000320
0002621F40
002EFE9E00
006FBBF800
009B02F600
00D607FB00
01F30DDD00
03F23F7E00
05F18B6E00
06F1D58E00
07F4E19D00
07FAA0CB00
06FF41F700
05FE07F200
04F82EA000
03FDED2000
06FE910000
0C70000000
1F20000000
0200000000
ENDCHAR
STARTCHAR Scommaaccent
ENCODING 536
SWIDTH 541 0
DWIDTH 15 0
BBX 15 30 0 -9
BITMAP
0000000014510000
0000004BFFF80000
00001AE63AB20000
0003EA1000000000
003E900000000000
02EA000000000000
0BD1000000000000
3F50000000000000
8E00000000000000
AC00000000000000
7E10000000000000
1DC3000000000000
019ED97542100000
000047ACEFFEA400
000000000025AF30
0000000000005F60
000000000018FB10
0000000039EE6000
0000049DFC610000
0006EFD830000000
0004520000000000
0000000000000000
0000000000000000
0000000400000000
0000008F40000000
0000008F60000000
0000005F50000000
0000006F20000000
0000006D00000000
0000007800000000
ENDCHAR
STARTCHAR scommaaccent
ENCODING 537
SWIDTH 366 0
DWIDTH 10 0
BBX 10 24 0 -9
BITMAP
0000000100
00006CFF50
002CD65910
01DC100000
09F2000000
1E90000000
4F30000000
4F20028B91
2FDBDFFFF9
08EE9400AD
00000001DA
0000001CE2
000003DF40
00007FE400
001CFD3000
0009700000
0000000000
0000230000
0000ED0000
0000EF0000
0000BE0000
0000CB0000
0000C80000
0000C30000
ENDCHAR
STARTCHAR circumflex
ENCODING 710
SWIDTH 390 0
DWIDTH 11 0
BBX 11 8 0 18
BITMAP
0000CB000000
0005FEA00000
000D82E80000
007E103F5000
01E60006F400
08C000009E50
1E4000000A30
150000000000
ENDCHAR
STARTCHAR caron
ENCODING 711
SWIDTH 390 0
DWIDTH 11 0
BBX 10 6 1 17
BITMAP
3300000000
2E300001BA
05D1001CA1
009B02C800
001DBD5000
0002A30000
ENDCHAR
STARTCHAR breve
ENCODING 728
SWIDTH 390 0
DWIDTH 11 0
BBX 8 5 1 16
BITMAP
04000056
1F7003F9
05FA8EE2
006FFD20
00023000
ENDCHAR
STARTCHAR dotaccent
ENCODING 729
SWIDTH 128 0
DWIDTH 4 0
BBX 3 2 0 15
BITMAP
4F80
3A30
ENDCHAR
STARTCHAR ring
ENCODING 730
SWIDTH 266 0
DWIDTH 7 0
BBX 7 5 0 14
BITMAP
039CDA20
4FC68EB0
7F1008E0
4F823DC0
07CDC920
ENDCHAR
STARTCHAR ogonek
ENCODING 731
SWIDTH 366 0
DWIDTH 10 0
BBX 8 8 2 -7
BITMAP
00170000
02ED0000
0BE10000
2F600000
5F200000
3F400591
0CEBEFE1
02ADC820
ENDCHAR
STARTCHAR tilde
ENCODING 732
SWIDTH 458 0
DWIDTH 13 0
BBX 11 5 1 15
BITMAP
07DEC3001730
8F85EC009F70
DB008F56FD10
83001CFFC200
000001660000
ENDCHAR
STARTCHAR hungarumlaut
ENCODING 733
SWIDTH 239 0
DWIDTH 7 0
BBX 7 6 0 12
BITMAP
00110000
01CA0720
1CF59F40
7F68FA00
350D9000
00010000
ENDCHAR
STARTCHAR Wgrave
ENCODING 7808
SWIDTH 878 0
DWIDTH 25 0
BBX 24 28 0 -1
BITMAP
000000000008100000000000
00000000000DB00000000000
000000000006F70000000000
0000000000009E0000000000
000000000000040000000000
000000000000000000000000
000000000000000000000083
0000000000000000000001F7
0000000000000000000004F3
0300000000006400000008E0
4E7000000002FE0000000BB0
3FC000000005FF4000000F70
0BF200000009DF9000004F30
04F70000000E5DD000007E00
00EB0000003F19F30000BB00
009F1000008B04F70000E700
004F500000D700DC0003F300
001FA00002F2007F2007E000
000CE00007D0002F700BB000
0008F4000C80000AD00E7000
0004F9002F400003F43F3000
0001FE007E000000BC7E0000
0000CF40C90000004FEB0000
00007F92F50000000BF90000
00002FD8F100000003F50000
00000CFFC000000000400000
000004FF5000000000000000
000000430000000000000000
ENDCHAR
STARTCHAR wgrave
ENCODING 7809
SWIDTH 566 0
DWIDTH 16 0
BBX 15 21 0 0
BITMAP
0000008100000000
000000EA00000000
0000007F60000000
0000000AD0000000
0000000040000000
0000000000000000
0000002400000300
2D2000BF20000E50
2F8000EFB0000E80
0AE000FBF4000E80
04F502F6AD000E80
00EB03F62F700E80
008F25F508E10E80
003F76F401D90E90
000CD8F3005F3EA0
0006FDF2000BCEA0
0001FFF10002FFB0
0000AFF000008FC0
00004FE000001DD0
00000ED000000250
000006A000000000
ENDCHAR
STARTCHAR Wacute
ENCODING 7810
SWIDTH 878 0
DWIDTH 25 0
BBX 24 27 0 -1
BITMAP
000000000000300000000000
000000000007F10000000000
00000000007FB00000000000
0000000001FC100000000000
000000000061000000000000
000000000000000000000083
0000000000000000000001F7
0000000000000000000004F3
0300000000006400000008E0
4E7000000002FE0000000BB0
3FC000000005FF4000000F70
0BF200000009DF9000004F30
04F70000000E5DD000007E00
00EB0000003F19F30000BB00
009F1000008B04F70000E700
004F500000D700DC0003F300
001FA00002F2007F2007E000
000CE00007D0002F700BB000
0008F4000C80000AD00E7000
0004F9002F400003F43F3000
0001FE007E000000BC7E0000
0000CF40C90000004FEB0000
00007F92F50000000BF90000
00002FD8F100000003F50000
00000CFFC000000000400000
000004FF5000000000000000
000000430000000000000000
ENDCHAR
STARTCHAR wacute
ENCODING 7811
SWIDTH 566 0
DWIDTH 16 0
BBX 15 21 0 0
BITMAP
0000000003000000
000000007F200000
00000006FB000000
0000001FC1000000
0000000610000000
0000000000000000
0000002400000300
2D2000BF20000E50
2F8000EFB0000E80
0AE000FBF4000E80
04F502F6AD000E80
00EB03F62F700E80
008F25F508E10E80
003F76F401D90E90
000CD8F3005F3EA0
0006FDF2000BCEA0
0001FFF10002FFB0
0000AFF000008FC0
00004FE000001DD0
00000ED000000250
000006A000000000
ENDCHAR
STARTCHAR Wdieresis
ENCODING 7812
SWIDTH 878 0
DWIDTH 25 0
BBX 24 25 0 -1
BITMAP
0000000001B905D400000000
0000000002D607C200000000
000000000000000000000000
000000000000000000000083
0000000000000000000001F7
0000000000000000000004F3
0300000000006400000008E0
4E7000000002FE0000000BB0
3FC000000005FF4000000F70
0BF200000009DF9000004F30
04F70000000E5DD000007E00
00EB0000003F19F30000BB00
009F1000008B04F70000E700
004F500000D700DC0003F300
001FA00002F2007F2007E000
000CE00007D0002F700BB000
0008F4000C80000AD00E7000
0004F9002F400003F43F3000
0001FE007E000000BC7E0000
0000CF40C90000004FEB0000
00007F92F50000000BF90000
00002FD8F100000003F50000
00000CFFC000000000400000
000004FF5000000000000000
000000430000000000000000
ENDCHAR
STARTCHAR wdieresis
ENCODING 7813
SWIDTH 566 0
DWIDTH 16 0
BBX 15 21 0 0
BITMAP
000007D21BA00000
000009B11D700000
0000000000000000
0000000000000000
0000000000000000
0000000000000000
0000002400000300
2D2000BF20000E50
2F8000EFB0000E80
0AE000FBF4000E80
04F502F6AD000E80
00EB03F62F700E80
008F25F508E10E80
003F76F401D90E90
000CD8F3005F3EA0
0006FDF2000BCEA0
0001FFF10002FFB0
0000AFF000008FC0
00004FE000001DD0
00000ED000000250
000006A000000000
ENDCHAR
STARTCHAR Ygrave
ENCODING 7922
SWIDTH 483 0
DWIDTH 14 0
BBX 13 28 0 0
BITMAP
00000620000000
00000BD1000000
000004F9000000
0000007F100000
00000004000000
00000000000000
00000000000280
000000000006D0
00000000000A90
00000000000E50
76000000004F10
5F300000009B00
0CD1000000E700
03FB000005F200
007F80000AD000
000AF5001F8000
0001CF406F3000
00001DF6CD0000
000002DFF70000
0000003FF20000
0000000FB00000
0000003F600000
0000007F100000
000000CB000000
000002F6000000
000007F1000000
00000AC0000000
00000A70000000
ENDCHAR
STARTCHAR ygrave
ENCODING 7923
SWIDTH 363 0
DWIDTH 10 0
BBX 10 32 0 -11
BITMAP
0007100000
000DC00000
0005F80000
00009E0000
0000040000
0000000000
0000000053
00000000A9
3A100000B9
4F900000C9
0BF30000D8
02FB0000E8
008F5000F8
000DD101F7
0004F902F7
00009F42F6
00001EE6F6
000006FFF6
000000BFF5
0000002FF4
00000008F3
00000005F2
00000006F1
00000007F0
00000008E0
00000009C0
0000000BB0
0000000CA0
0000000D90
0000000E70
0000000F60
0000000730
ENDCHAR
STARTCHAR endash
ENCODING 8211
SWIDTH 399 0
DWIDTH 11 0
BBX 11 5 0 5
BITMAP
000000000100
00000028DF80
00005BFFE930
269EFC830000
6CB620000000
ENDCHAR
STARTCHAR emdash
ENCODING 8212
SWIDTH 549 0
DWIDTH 15 0
BBX 14 4 0 5
BITMAP
00000000003687
00000259CFFFFC
268BEFFEB86310
6CB96410000000
ENDCHAR
STARTCHAR quoteleft
ENCODING 8216
SWIDTH 155 0
DWIDTH 4 0
BBX 3 9 0 9
BITMAP
0710
1F80
0FB0
0DC0
0BC0
09B0
08A0
05A0
0040
ENDCHAR
STARTCHAR quoteright
ENCODING 8217
SWIDTH 155 0
DWIDTH 4 0
BBX 3 9 0 9
BITMAP
0710
1F80
0FB0
0DC0
0BC0
09B0
08A0
05A0
0040
ENDCHAR
STARTCHAR quotesinglbase
ENCODING 8218
SWIDTH 155 0
DWIDTH 4 0
BBX 3 9 1 -1
BITMAP
7600
CD00
AF00
9F10
7F00
5F00
3F00
1D00
0200
ENDCHAR
STARTCHAR quotedblleft
ENCODING 8220
SWIDTH 212 0
DWIDTH 6 0
BBX 5 9 0 14
BITMAP
010000
3F1280
2F32E0
0F42E0
0E52E0
0D62E0
0B62E0
0971D0
066010
ENDCHAR
STARTCHAR quotedblright
ENCODING 8221
SWIDTH 212 0
DWIDTH 6 0
BBX 5 9 0 14
BITMAP
010000
3F1280
2F32E0
0F42E0
0E52E0
0D62E0
0B62E0
0971D0
066010
ENDCHAR
STARTCHAR quotedblbase
ENCODING 8222
SWIDTH 212 0
DWIDTH 6 0
BBX 5 9 0 -1
BITMAP
2E2160
1F41F0
0F51F0
0D61F0
0C71F0
0A71F0
0881F0
068020
001000
ENDCHAR
STARTCHAR dagger
ENCODING 8224
SWIDTH 268 0
DWIDTH 8 0
BBX 9 23 -1 -1
BITMAP
0004100000
003F600000
003F500000
003F300000
004F200000
004F200000
004F203750
005FBEFF80
05DFFE8200
BFFF610000
CDBF100000
007F200000
006F300000
005F300000
005F400000
004F400000
003F500000
002F600000
001F600000
000F700000
000E700000
000E800000
0006300000
ENDCHAR
STARTCHAR daggerdbl
ENCODING 8225
SWIDTH 326 0
DWIDTH 9 0
BBX 10 23 0 -1
BITMAP
0003200000
000CB00000
000CA00000
000D900000
000D800000
000D800000
000E801680
000ECCFFD0
02BFFFB400
6FFFB20000
6EAF700240
002FA9DFF2
039FFEA620
5FEF900000
240F900000
000E900000
000DA00000
000CB00000
000BB00000
000AC00000
0009D00000
0008D00000
0003700000
ENDCHAR
STARTCHAR bullet
ENCODING 8226
SWIDTH 189 0
DWIDTH 5 0
BBX 4 5 1 6
BITMAP
0120
4EF6
DFF8
BFF3
2850
ENDCHAR
STARTCHAR ellipsis
ENCODING 8230
SWIDTH 387 0
DWIDTH 11 0
BBX 10 2 0 0
BITMAP
19804B307A
2F808F30EC
ENDCHAR
STARTCHAR guilsinglleft
ENCODING 8249
SWIDTH 409 0
DWIDTH 11 0
BBX 11 15 1 3
BITMAP
000000001A10
00000001CE10
0000003DF400
000005EF5000
00007FD30000
000AFA100000
01CE60000000
3DD200000000
9F6000000000
2DF810000000
01AFD5000000
0005DFB30000
000018FFB400
0000002BF700
000000004000
ENDCHAR
STARTCHAR guilsinglright
ENCODING 8250
SWIDTH 450 0
DWIDTH 13 0
BBX 10 16 1 3
BITMAP
2300000000
9F91000000
2BFE700000
004CFD5000
00005DFB30
0000006EF7
00000001BE
00000000CA
00000009E2
000001AF40
00002DF500
0005EE4000
009FD30000
0AFC100000
7F80000000
7400000000
ENDCHAR
STARTCHAR fraction
ENCODING 8260
SWIDTH 306 0
DWIDTH 9 0
BBX 8 23 0 -3
BITMAP
00000056
000000C8
000002F3
000006D0
00000B90
00001F40
00005E00
0000AA00
0000E500
0004F100
0008B000
000D6000
002F2000
007C0000
00C70000
01F30000
06D00000
0A800000
0E400000
4E000000
9A000000
C5000000
21000000
ENDCHAR
STARTCHAR Euro
ENCODING 8364
SWIDTH 589 0
DWIDTH 17 0
BBX 16 22 0 -1
BITMAP
0000000003520000
00000000AFFE4000
0000000AE41AB000
0000005F40007000
000000CA00000000
000004F300000000
00000AC000000000
00000E7000000000
00003F3000000000
00139F8ACC300000
1EFFFFD950000000
0676F70000000000
0002F40015630000
0004F58CFFB10000
025BFEA752000000
9FECF00000000011
1406F000000000DB
0004F200000009F6
0000E8000003CF80
00007F9679DFE700
000008EFFFD81000
0000000332000000
ENDCHAR
STARTCHAR trademark
ENCODING 8482
SWIDTH 1278 0
DWIDTH 36 0
BBX 35 22 0 0
BITMAP
000000000000000002510000000000032000
000000000000000007FD20000000001F8000
000000004D2013467BFFD1000000005FA000
00000246CFEFFFFFDAFBF800000000AFB000
28BDFFFEEFB6532000F49F20000000E9C000
8DCA73103F70000000D51E90000005D5D000
000000000F70000000C608F200000994E000
000000000E80000000A701E900000E43F100
000000000C9000000098008F20004E01F200
000000000BB00000009A001E90009A00F300
0000000009C00000008B0008F200E500E400
0000000008E00000008D0001E904F100C500
0000000006F10000007E00008F29A000B700
0000000005F30000007F10001EBE5000A900
0000000004F50000007F200008FD00009B00
0000000002F70000007F400001E500007C00
0000000001F90000007F5000001000006E00
0000000000EB0000007F7000000000005F20
0000000000CD0000006F8000000000003F50
0000000000AE0000005F9000000000002F80
00000000007E0000004F9000000000001FC0
00000000004F0000002E9000000000000C70
ENDCHAR
STARTCHAR minus
ENCODING 8722
SWIDTH 358 0
DWIDTH 10 0
BBX 9 3 1 7
BITMAP
0000001100
479BCEFF50
8BA9876520
ENDCHAR
STARTCHAR commaaccent
ENCODING 63171
SWIDTH 450 0
DWIDTH 13 0
BBX 3 7 4 -9
BITMAP
0320
2FA0
2FC0
0EB0
0F80
0F50
1D10
ENDCHAR
STARTCHAR fi
ENCODING 64257
SWIDTH 409 0
DWIDTH 11 0
BBX 10 26 0 -1
BITMAP
0000BE7000
0006FFF500
000AF4AC00
000EE02D00
001FB00372
003F9000D6
004F800000
005F600000
006F500000
006F40005B
006F3001AF
006F218EFF
005FAEFFEF
01BFD9629F
2EFF20009E
272F30009E
001F50009E
001F60009E
000F80008E
000EA0008E
000DB0007E
000CC0007E
000BC0006E
000AC0006F
0008A0006F
0000000013
ENDCHAR
STARTCHAR fl
ENCODING 64258
SWIDTH 416 0
DWIDTH 12 0
BBX 11 25 0 0
BITMAP
0000BE700000
0006FFF51100
000AF4ACB800
000EE02D9A00
001FB0037B00
003F90006D00
004F80004E00
005F60003F00
006F50002F10
006F40002F20
006F30015F20
006F218EFF30
005FAEFF7E40
01BFD9620E50
2EFF20000E50
272F30000D60
001F50000D60
001F60000C70
000F80000D70
000EA0000D80
000DB0000D80
000CC0000E90
000BC0000F90
000AC0001F90
0008A0001E90
ENDCHAR
STARTCHAR .notdef
ENCODING -1
SWIDTH 450 0
DWIDTH 13 0
BBX 1 1 0 0
BITMAP
00
ENDCHAR
STARTCHAR .null
ENCODING -1
SWIDTH 0 0
DWIDTH 0 0
BBX 1 1 0 0
BITMAP
00
ENDCHAR
STARTCHAR nonmarkingreturn
ENCODING -1
SWIDTH 450 0
DWIDTH 13 0
BBX 1 1 0 0
BITMAP
00
ENDCHAR
ENDFONT
